<?xml version="1.0" encoding="UTF-8" standalone="no"?>
<svg
   xmlns:dc="http://purl.org/dc/elements/1.1/"
   xmlns:cc="http://creativecommons.org/ns#"
   xmlns:rdf="http://www.w3.org/1999/02/22-rdf-syntax-ns#"
   xmlns:svg="http://www.w3.org/2000/svg"
   xmlns="http://www.w3.org/2000/svg"
   xmlns:sodipodi="http://sodipodi.sourceforge.net/DTD/sodipodi-0.dtd"
   xmlns:inkscape="http://www.inkscape.org/namespaces/inkscape"
   width="65.599731mm"
   height="65.599731mm"
   viewBox="0 0 65.599725 65.599727"
   version="1.1"
   id="svg114"
   sodipodi:docname="arrow_left.svg"
   inkscape:version="1.0.2-2 (e86c870879, 2021-01-15)">
  <defs
     id="defs108">
    <clipPath
       clipPathUnits="userSpaceOnUse"
       id="clipPath1101">
      <path
         d="M 0,1080 H 1920 V 0 H 0 Z"
         id="path1099" />
    </clipPath>
    <clipPath
       clipPathUnits="userSpaceOnUse"
       id="clipPath1109">
      <path
         d="M 56.9367,1110.13 H 1888.36 V 283.098 H 56.9367 Z"
         id="path1107" />
    </clipPath>
    <clipPath
       clipPathUnits="userSpaceOnUse"
       id="clipPath1113">
      <path
         d="M 56.9367,1110.13 H 1888.36 V 283.098 H 56.9367 Z"
         id="path1111" />
    </clipPath>
    <clipPath
       clipPathUnits="userSpaceOnUse"
       id="clipPath1117">
      <path
         d="M 1857.973,286.01 H 1302.304 62.396 v 507.98 h 1795.577 z"
         id="path1115" />
    </clipPath>
    <clipPath
       clipPathUnits="userSpaceOnUse"
       id="clipPath1121">
      <path
         d="M 56.9367,535.762 H 229.818 V 283.098 H 56.9367 Z"
         id="path1119" />
    </clipPath>
    <clipPath
       clipPathUnits="userSpaceOnUse"
       id="clipPath1125">
      <path
         d="M 541.493,828.151 H 1403.8 V 283.098 H 541.493 Z"
         id="path1123" />
    </clipPath>
    <clipPath
       clipPathUnits="userSpaceOnUse"
       id="clipPath1129">
      <path
         d="m 1101.3,1110.13 h 787.06 V 283.098 H 1101.3 Z"
         id="path1127" />
    </clipPath>
    <clipPath
       clipPathUnits="userSpaceOnUse"
       id="clipPath1133">
      <path
         d="M 56.9367,637.796 H 426.516 V 283.098 H 56.9367 Z"
         id="path1131" />
    </clipPath>
    <clipPath
       clipPathUnits="userSpaceOnUse"
       id="clipPath1137">
      <path
         d="M 61.3454,633.681 H 615.993 V 283.098 H 61.3454 Z"
         id="path1135" />
    </clipPath>
    <clipPath
       clipPathUnits="userSpaceOnUse"
       id="clipPath1141">
      <path
         d="M 396.129,727.044 H 1098.48 V 283.098 H 396.129 Z"
         id="path1139" />
    </clipPath>
    <clipPath
       clipPathUnits="userSpaceOnUse"
       id="clipPath1145">
      <path
         d="M 825.351,930.394 H 1849.43 V 283.098 H 825.351 Z"
         id="path1143" />
    </clipPath>
    <clipPath
       clipPathUnits="userSpaceOnUse"
       id="clipPath1149">
      <path
         d="m 1468.8,998.234 h 419.56 V 283.098 H 1468.8 Z"
         id="path1147" />
    </clipPath>
    <clipPath
       clipPathUnits="userSpaceOnUse"
       id="clipPath1153">
      <path
         d="M 239.279,678.129 H 864.251 V 283.098 H 239.279 Z"
         id="path1151" />
    </clipPath>
    <clipPath
       clipPathUnits="userSpaceOnUse"
       id="clipPath1101-3">
      <path
         d="M 0,1080 H 1920 V 0 H 0 Z"
         id="path1099-9" />
    </clipPath>
    <clipPath
       clipPathUnits="userSpaceOnUse"
       id="clipPath1109-2">
      <path
         d="M 56.9367,1110.13 H 1888.36 V 283.098 H 56.9367 Z"
         id="path1107-9" />
    </clipPath>
    <clipPath
       clipPathUnits="userSpaceOnUse"
       id="clipPath1113-3">
      <path
         d="M 56.9367,1110.13 H 1888.36 V 283.098 H 56.9367 Z"
         id="path1111-6" />
    </clipPath>
    <clipPath
       clipPathUnits="userSpaceOnUse"
       id="clipPath1117-5">
      <path
         d="M 1857.973,286.01 H 1302.304 62.396 v 507.98 h 1795.577 z"
         id="path1115-7" />
    </clipPath>
    <clipPath
       clipPathUnits="userSpaceOnUse"
       id="clipPath1121-4">
      <path
         d="M 56.9367,535.762 H 229.818 V 283.098 H 56.9367 Z"
         id="path1119-0" />
    </clipPath>
    <clipPath
       clipPathUnits="userSpaceOnUse"
       id="clipPath1125-2">
      <path
         d="M 541.493,828.151 H 1403.8 V 283.098 H 541.493 Z"
         id="path1123-7" />
    </clipPath>
    <clipPath
       clipPathUnits="userSpaceOnUse"
       id="clipPath1129-4">
      <path
         d="m 1101.3,1110.13 h 787.06 V 283.098 H 1101.3 Z"
         id="path1127-7" />
    </clipPath>
    <clipPath
       clipPathUnits="userSpaceOnUse"
       id="clipPath1133-9">
      <path
         d="M 56.9367,637.796 H 426.516 V 283.098 H 56.9367 Z"
         id="path1131-9" />
    </clipPath>
    <clipPath
       clipPathUnits="userSpaceOnUse"
       id="clipPath1137-5">
      <path
         d="M 61.3454,633.681 H 615.993 V 283.098 H 61.3454 Z"
         id="path1135-4" />
    </clipPath>
    <clipPath
       clipPathUnits="userSpaceOnUse"
       id="clipPath1141-8">
      <path
         d="M 396.129,727.044 H 1098.48 V 283.098 H 396.129 Z"
         id="path1139-4" />
    </clipPath>
    <clipPath
       clipPathUnits="userSpaceOnUse"
       id="clipPath1145-4">
      <path
         d="M 825.351,930.394 H 1849.43 V 283.098 H 825.351 Z"
         id="path1143-6" />
    </clipPath>
    <clipPath
       clipPathUnits="userSpaceOnUse"
       id="clipPath1149-3">
      <path
         d="m 1468.8,998.234 h 419.56 V 283.098 H 1468.8 Z"
         id="path1147-8" />
    </clipPath>
    <clipPath
       clipPathUnits="userSpaceOnUse"
       id="clipPath1153-8">
      <path
         d="M 239.279,678.129 H 864.251 V 283.098 H 239.279 Z"
         id="path1151-8" />
    </clipPath>
  </defs>
  <sodipodi:namedview
     id="base"
     pagecolor="#ffffff"
     bordercolor="#666666"
     borderopacity="1.0"
     inkscape:pageopacity="0.0"
     inkscape:pageshadow="2"
     inkscape:zoom="0.35"
     inkscape:cx="-107.3725"
     inkscape:cy="256.61072"
     inkscape:document-units="mm"
     inkscape:current-layer="layer1"
     inkscape:document-rotation="0"
     showgrid="false"
     inkscape:pagecheckerboard="true"
     inkscape:window-width="1920"
     inkscape:window-height="1017"
     inkscape:window-x="-8"
     inkscape:window-y="-8"
     inkscape:window-maximized="1" />
  <metadata
     id="metadata111">
    <rdf:RDF>
      <cc:Work
         rdf:about="">
        <dc:format>image/svg+xml</dc:format>
        <dc:type
           rdf:resource="http://purl.org/dc/dcmitype/StillImage" />
        <dc:title></dc:title>
      </cc:Work>
    </rdf:RDF>
  </metadata>
  <g
     inkscape:label="Layer 1"
     inkscape:groupmode="layer"
     id="layer1"
     transform="translate(-134.05852,-80.088153)">
    <g
       id="g3414"
       transform="matrix(0.35277777,0,0,-0.35277777,166.85839,80.088153)">
      <path
         d="m 0,0 v 0 c 51.137,0 92.976,-41.839 92.976,-92.976 v 0 c 0,-51.137 -41.839,-92.976 -92.976,-92.976 v 0 c -51.137,0 -92.976,41.839 -92.976,92.976 v 0 C -92.976,-41.839 -51.137,0 0,0"
         style="fill:#231f20;fill-opacity:1;fill-rule:nonzero;stroke:none"
         id="path3416" />
    </g>
    <g
       id="g3418"
       transform="matrix(0.35277777,0,0,-0.35277777,169.8376,102.06233)">
      <path
         d="M 0,0 -18.531,-15.678 H 27.931 V -35.063 H -18.531 L 0,-50.741 -11.403,-63.856 -51.317,-25.654 v 0.568 l 39.914,38.201 z"
         style="fill:#ffffff;fill-opacity:1;fill-rule:nonzero;stroke:none"
         id="path3420" />
    </g>
  </g>
</svg>
