<?xml version="1.0" encoding="UTF-8" standalone="no"?>
<svg
   xmlns:dc="http://purl.org/dc/elements/1.1/"
   xmlns:cc="http://creativecommons.org/ns#"
   xmlns:rdf="http://www.w3.org/1999/02/22-rdf-syntax-ns#"
   xmlns:svg="http://www.w3.org/2000/svg"
   xmlns="http://www.w3.org/2000/svg"
   xmlns:sodipodi="http://sodipodi.sourceforge.net/DTD/sodipodi-0.dtd"
   xmlns:inkscape="http://www.inkscape.org/namespaces/inkscape"
   width="73.236313mm"
   height="68.893997mm"
   viewBox="0 0 73.23631 68.893991"
   version="1.1"
   id="svg114"
   sodipodi:docname="icon_ux_announcement.svg"
   inkscape:version="1.0.2-2 (e86c870879, 2021-01-15)">
  <defs
     id="defs108">
    <clipPath
       clipPathUnits="userSpaceOnUse"
       id="clipPath1101">
      <path
         d="M 0,1080 H 1920 V 0 H 0 Z"
         id="path1099" />
    </clipPath>
    <clipPath
       clipPathUnits="userSpaceOnUse"
       id="clipPath1109">
      <path
         d="M 56.9367,1110.13 H 1888.36 V 283.098 H 56.9367 Z"
         id="path1107" />
    </clipPath>
    <clipPath
       clipPathUnits="userSpaceOnUse"
       id="clipPath1113">
      <path
         d="M 56.9367,1110.13 H 1888.36 V 283.098 H 56.9367 Z"
         id="path1111" />
    </clipPath>
    <clipPath
       clipPathUnits="userSpaceOnUse"
       id="clipPath1117">
      <path
         d="M 1857.973,286.01 H 1302.304 62.396 v 507.98 h 1795.577 z"
         id="path1115" />
    </clipPath>
    <clipPath
       clipPathUnits="userSpaceOnUse"
       id="clipPath1121">
      <path
         d="M 56.9367,535.762 H 229.818 V 283.098 H 56.9367 Z"
         id="path1119" />
    </clipPath>
    <clipPath
       clipPathUnits="userSpaceOnUse"
       id="clipPath1125">
      <path
         d="M 541.493,828.151 H 1403.8 V 283.098 H 541.493 Z"
         id="path1123" />
    </clipPath>
    <clipPath
       clipPathUnits="userSpaceOnUse"
       id="clipPath1129">
      <path
         d="m 1101.3,1110.13 h 787.06 V 283.098 H 1101.3 Z"
         id="path1127" />
    </clipPath>
    <clipPath
       clipPathUnits="userSpaceOnUse"
       id="clipPath1133">
      <path
         d="M 56.9367,637.796 H 426.516 V 283.098 H 56.9367 Z"
         id="path1131" />
    </clipPath>
    <clipPath
       clipPathUnits="userSpaceOnUse"
       id="clipPath1137">
      <path
         d="M 61.3454,633.681 H 615.993 V 283.098 H 61.3454 Z"
         id="path1135" />
    </clipPath>
    <clipPath
       clipPathUnits="userSpaceOnUse"
       id="clipPath1141">
      <path
         d="M 396.129,727.044 H 1098.48 V 283.098 H 396.129 Z"
         id="path1139" />
    </clipPath>
    <clipPath
       clipPathUnits="userSpaceOnUse"
       id="clipPath1145">
      <path
         d="M 825.351,930.394 H 1849.43 V 283.098 H 825.351 Z"
         id="path1143" />
    </clipPath>
    <clipPath
       clipPathUnits="userSpaceOnUse"
       id="clipPath1149">
      <path
         d="m 1468.8,998.234 h 419.56 V 283.098 H 1468.8 Z"
         id="path1147" />
    </clipPath>
    <clipPath
       clipPathUnits="userSpaceOnUse"
       id="clipPath1153">
      <path
         d="M 239.279,678.129 H 864.251 V 283.098 H 239.279 Z"
         id="path1151" />
    </clipPath>
    <clipPath
       clipPathUnits="userSpaceOnUse"
       id="clipPath1101-3">
      <path
         d="M 0,1080 H 1920 V 0 H 0 Z"
         id="path1099-9" />
    </clipPath>
    <clipPath
       clipPathUnits="userSpaceOnUse"
       id="clipPath1109-2">
      <path
         d="M 56.9367,1110.13 H 1888.36 V 283.098 H 56.9367 Z"
         id="path1107-9" />
    </clipPath>
    <clipPath
       clipPathUnits="userSpaceOnUse"
       id="clipPath1113-3">
      <path
         d="M 56.9367,1110.13 H 1888.36 V 283.098 H 56.9367 Z"
         id="path1111-6" />
    </clipPath>
    <clipPath
       clipPathUnits="userSpaceOnUse"
       id="clipPath1117-5">
      <path
         d="M 1857.973,286.01 H 1302.304 62.396 v 507.98 h 1795.577 z"
         id="path1115-7" />
    </clipPath>
    <clipPath
       clipPathUnits="userSpaceOnUse"
       id="clipPath1121-4">
      <path
         d="M 56.9367,535.762 H 229.818 V 283.098 H 56.9367 Z"
         id="path1119-0" />
    </clipPath>
    <clipPath
       clipPathUnits="userSpaceOnUse"
       id="clipPath1125-2">
      <path
         d="M 541.493,828.151 H 1403.8 V 283.098 H 541.493 Z"
         id="path1123-7" />
    </clipPath>
    <clipPath
       clipPathUnits="userSpaceOnUse"
       id="clipPath1129-4">
      <path
         d="m 1101.3,1110.13 h 787.06 V 283.098 H 1101.3 Z"
         id="path1127-7" />
    </clipPath>
    <clipPath
       clipPathUnits="userSpaceOnUse"
       id="clipPath1133-9">
      <path
         d="M 56.9367,637.796 H 426.516 V 283.098 H 56.9367 Z"
         id="path1131-9" />
    </clipPath>
    <clipPath
       clipPathUnits="userSpaceOnUse"
       id="clipPath1137-5">
      <path
         d="M 61.3454,633.681 H 615.993 V 283.098 H 61.3454 Z"
         id="path1135-4" />
    </clipPath>
    <clipPath
       clipPathUnits="userSpaceOnUse"
       id="clipPath1141-8">
      <path
         d="M 396.129,727.044 H 1098.48 V 283.098 H 396.129 Z"
         id="path1139-4" />
    </clipPath>
    <clipPath
       clipPathUnits="userSpaceOnUse"
       id="clipPath1145-4">
      <path
         d="M 825.351,930.394 H 1849.43 V 283.098 H 825.351 Z"
         id="path1143-6" />
    </clipPath>
    <clipPath
       clipPathUnits="userSpaceOnUse"
       id="clipPath1149-3">
      <path
         d="m 1468.8,998.234 h 419.56 V 283.098 H 1468.8 Z"
         id="path1147-8" />
    </clipPath>
    <clipPath
       clipPathUnits="userSpaceOnUse"
       id="clipPath1153-8">
      <path
         d="M 239.279,678.129 H 864.251 V 283.098 H 239.279 Z"
         id="path1151-8" />
    </clipPath>
  </defs>
  <sodipodi:namedview
     id="base"
     pagecolor="#ffffff"
     bordercolor="#666666"
     borderopacity="1.0"
     inkscape:pageopacity="0.0"
     inkscape:pageshadow="2"
     inkscape:zoom="0.35"
     inkscape:cx="-505.67739"
     inkscape:cy="316.46322"
     inkscape:document-units="mm"
     inkscape:current-layer="layer1"
     inkscape:document-rotation="0"
     showgrid="false"
     inkscape:pagecheckerboard="true"
     inkscape:window-width="1920"
     inkscape:window-height="1017"
     inkscape:window-x="-8"
     inkscape:window-y="-8"
     inkscape:window-maximized="1" />
  <metadata
     id="metadata111">
    <rdf:RDF>
      <cc:Work
         rdf:about="">
        <dc:format>image/svg+xml</dc:format>
        <dc:type
           rdf:resource="http://purl.org/dc/dcmitype/StillImage" />
        <dc:title></dc:title>
      </cc:Work>
    </rdf:RDF>
  </metadata>
  <g
     inkscape:label="Layer 1"
     inkscape:groupmode="layer"
     id="layer1"
     transform="translate(-239.44336,-64.252176)">
    <g
       id="g2757"
       transform="matrix(0.35277777,0,0,-0.35277777,312.67967,96.048742)">
      <path
         d="m 0,0 c 0,8.608 -4.213,16.249 -10.751,21.134 -0.801,39.323 -4.408,68.998 -8.736,68.998 -0.04,0 -0.091,-0.06 -0.148,-0.166 -0.311,-0.355 -0.638,-0.72 -0.981,-1.096 -0.087,-0.095 -0.175,-0.191 -0.265,-0.288 -0.41,-0.444 -0.835,-0.897 -1.289,-1.367 -0.007,-0.008 -0.015,-0.016 -0.022,-0.023 -0.453,-0.469 -0.933,-0.952 -1.429,-1.445 -0.082,-0.081 -0.163,-0.163 -0.247,-0.245 -0.517,-0.51 -1.054,-1.031 -1.616,-1.564 -0.017,-0.015 -0.034,-0.032 -0.051,-0.047 -0.542,-0.514 -1.11,-1.039 -1.693,-1.571 -0.092,-0.084 -0.182,-0.167 -0.275,-0.251 -0.599,-0.543 -1.217,-1.094 -1.857,-1.653 -0.09,-0.079 -0.184,-0.159 -0.275,-0.238 -0.546,-0.475 -1.11,-0.956 -1.685,-1.442 -0.167,-0.141 -0.332,-0.281 -0.502,-0.423 -0.622,-0.52 -1.261,-1.045 -1.916,-1.575 -2.049,-1.656 -4.255,-3.357 -6.618,-5.079 -0.113,-0.083 -0.226,-0.167 -0.342,-0.251 -0.69,-0.5 -1.394,-1.002 -2.109,-1.505 -0.174,-0.121 -0.352,-0.243 -0.524,-0.365 -2.131,-1.486 -4.371,-2.978 -6.724,-4.467 -0.341,-0.218 -0.68,-0.435 -1.028,-0.652 -0.641,-0.4 -1.293,-0.797 -1.947,-1.196 -0.444,-0.268 -0.891,-0.535 -1.336,-0.802 -0.635,-0.378 -1.269,-0.755 -1.915,-1.13 -0.545,-0.316 -1.104,-0.629 -1.659,-0.943 -0.952,-0.539 -1.917,-1.075 -2.9,-1.608 -0.695,-0.377 -1.388,-0.754 -2.098,-1.127 -0.571,-0.302 -1.156,-0.6 -1.738,-0.899 -0.678,-0.349 -1.363,-0.697 -2.052,-1.04 -0.579,-0.288 -1.156,-0.574 -1.744,-0.859 -0.791,-0.385 -1.594,-0.763 -2.402,-1.142 -0.499,-0.232 -0.989,-0.467 -1.49,-0.698 -1.26,-0.575 -2.538,-1.142 -3.831,-1.699 -0.475,-0.205 -0.961,-0.403 -1.44,-0.605 -0.919,-0.387 -1.843,-0.769 -2.781,-1.146 -0.545,-0.22 -1.096,-0.436 -1.647,-0.652 -0.95,-0.372 -1.912,-0.735 -2.877,-1.095 -0.501,-0.186 -0.996,-0.373 -1.501,-0.557 -1.436,-0.52 -2.89,-1.031 -4.364,-1.523 -10e-4,-10e-4 -0.002,-10e-4 -0.004,-0.002 -0.266,-0.087 -0.535,-0.17 -0.801,-0.256 -1.255,-0.413 -2.521,-0.815 -3.802,-1.206 -0.524,-0.159 -1.052,-0.313 -1.58,-0.468 -1.08,-0.319 -2.17,-0.631 -3.271,-0.933 -0.533,-0.145 -1.066,-0.294 -1.606,-0.437 -1.338,-0.355 -2.694,-0.697 -4.058,-1.024 -0.273,-0.065 -0.539,-0.137 -0.812,-0.201 -1.628,-0.384 -3.278,-0.742 -4.941,-1.086 -0.487,-0.1 -0.976,-0.191 -1.463,-0.287 -1.226,-0.242 -2.46,-0.474 -3.704,-0.691 -0.573,-0.102 -1.147,-0.201 -1.723,-0.296 -1.293,-0.213 -2.594,-0.411 -3.906,-0.599 -0.464,-0.067 -0.922,-0.14 -1.388,-0.202 -1.754,-0.237 -3.527,-0.452 -5.315,-0.638 -0.38,-0.041 -0.762,-0.07 -1.141,-0.106 -1.438,-0.142 -2.881,-0.268 -4.338,-0.376 -0.601,-0.043 -1.204,-0.081 -1.806,-0.12 -1.318,-0.084 -2.648,-0.151 -3.984,-0.207 -0.576,-0.023 -1.151,-0.05 -1.727,-0.068 -1.843,-0.06 -3.698,-0.097 -5.574,-0.099 -0.038,0 -0.076,-10e-4 -0.114,-10e-4 h -0.003 -28.188 v -0.049 c -17.564,-0.787 -31.545,-14.683 -31.545,-31.714 0,-15.25 11.218,-27.982 26.178,-31.04 v -1.683 -1.055 c 0,-5.433 3.815,-9.994 8.995,-11.351 4.822,-21.285 13.588,-55.625 20.915,-60.514 0,0 10.596,-8.026 26.71,-1.747 0,0 -0.078,0.288 -0.22,0.818 0.075,0.028 0.146,0.048 0.22,0.077 0,0 -4.316,15.963 -8.611,33.751 l 1.747,0.346 c 1.463,0.288 2.407,1.669 2.106,3.083 l -3.436,16.221 c -0.298,1.415 -1.73,2.325 -3.191,2.034 l -2.083,-0.411 c -0.474,2.245 -0.916,4.421 -1.319,6.5 4.885,1.533 8.421,5.962 8.421,11.193 v 1.057 0.186 c 0.197,-0.019 0.398,-0.033 0.594,-0.052 0.484,-0.045 0.977,-0.085 1.458,-0.136 1.73,-0.182 3.442,-0.387 5.137,-0.615 0.618,-0.085 1.223,-0.178 1.834,-0.266 1.134,-0.165 2.261,-0.336 3.379,-0.519 0.71,-0.118 1.421,-0.24 2.124,-0.364 1.04,-0.184 2.072,-0.379 3.098,-0.578 0.675,-0.132 1.353,-0.259 2.02,-0.398 1.492,-0.308 2.973,-0.632 4.439,-0.974 0.695,-0.164 1.382,-0.339 2.072,-0.508 0.962,-0.237 1.918,-0.474 2.865,-0.724 0.774,-0.202 1.536,-0.414 2.301,-0.625 0.794,-0.221 1.586,-0.447 2.374,-0.676 0.785,-0.23 1.57,-0.46 2.347,-0.697 0.748,-0.23 1.484,-0.468 2.222,-0.704 1.469,-0.472 2.918,-0.956 4.35,-1.455 0.591,-0.205 1.185,-0.407 1.767,-0.617 0.881,-0.316 1.747,-0.642 2.614,-0.97 0.525,-0.197 1.046,-0.395 1.565,-0.594 0.892,-0.346 1.776,-0.695 2.651,-1.049 0.412,-0.167 0.82,-0.337 1.229,-0.507 3.19,-1.318 6.273,-2.692 9.249,-4.114 0.145,-0.07 0.29,-0.137 0.435,-0.207 1.017,-0.49 2.02,-0.984 3.011,-1.484 0.121,-0.06 0.24,-0.121 0.362,-0.182 12.87,-6.514 23.533,-13.763 31.688,-20.326 0,-0.002 0,-0.003 10e-4,-0.005 4.822,-3.886 8.774,-7.533 11.78,-10.642 0.015,-0.015 0.029,-0.03 0.044,-0.046 0.23,-0.238 0.436,-0.462 0.655,-0.694 0.644,-1.432 1.316,-2.191 2.005,-2.198 0.001,-0.001 0.001,-0.001 0.002,-0.002 -10e-4,0.001 -10e-4,0.001 -10e-4,0.002 0.003,0 0.006,-0.002 0.009,-0.002 3.972,0 7.338,25.001 8.483,59.512 C -4.322,-16.443 0,-8.718 0,0"
         style="fill:#231f20;fill-opacity:1;fill-rule:nonzero;stroke:none"
         id="path2759" />
    </g>
  </g>
</svg>
