<?xml version="1.0" encoding="UTF-8" standalone="no"?>
<svg
   xmlns:dc="http://purl.org/dc/elements/1.1/"
   xmlns:cc="http://creativecommons.org/ns#"
   xmlns:rdf="http://www.w3.org/1999/02/22-rdf-syntax-ns#"
   xmlns:svg="http://www.w3.org/2000/svg"
   xmlns="http://www.w3.org/2000/svg"
   xmlns:sodipodi="http://sodipodi.sourceforge.net/DTD/sodipodi-0.dtd"
   xmlns:inkscape="http://www.inkscape.org/namespaces/inkscape"
   width="142.81741mm"
   height="143.90692mm"
   viewBox="0 0 142.8174 143.90691"
   version="1.1"
   id="svg114"
   sodipodi:docname="icon_tool_explore__inactive.svg"
   inkscape:version="1.0.2-2 (e86c870879, 2021-01-15)">
  <defs
     id="defs108">
    <clipPath
       clipPathUnits="userSpaceOnUse"
       id="clipPath1101">
      <path
         d="M 0,1080 H 1920 V 0 H 0 Z"
         id="path1099" />
    </clipPath>
    <clipPath
       clipPathUnits="userSpaceOnUse"
       id="clipPath1109">
      <path
         d="M 56.9367,1110.13 H 1888.36 V 283.098 H 56.9367 Z"
         id="path1107" />
    </clipPath>
    <clipPath
       clipPathUnits="userSpaceOnUse"
       id="clipPath1113">
      <path
         d="M 56.9367,1110.13 H 1888.36 V 283.098 H 56.9367 Z"
         id="path1111" />
    </clipPath>
    <clipPath
       clipPathUnits="userSpaceOnUse"
       id="clipPath1117">
      <path
         d="M 1857.973,286.01 H 1302.304 62.396 v 507.98 h 1795.577 z"
         id="path1115" />
    </clipPath>
    <clipPath
       clipPathUnits="userSpaceOnUse"
       id="clipPath1121">
      <path
         d="M 56.9367,535.762 H 229.818 V 283.098 H 56.9367 Z"
         id="path1119" />
    </clipPath>
    <clipPath
       clipPathUnits="userSpaceOnUse"
       id="clipPath1125">
      <path
         d="M 541.493,828.151 H 1403.8 V 283.098 H 541.493 Z"
         id="path1123" />
    </clipPath>
    <clipPath
       clipPathUnits="userSpaceOnUse"
       id="clipPath1129">
      <path
         d="m 1101.3,1110.13 h 787.06 V 283.098 H 1101.3 Z"
         id="path1127" />
    </clipPath>
    <clipPath
       clipPathUnits="userSpaceOnUse"
       id="clipPath1133">
      <path
         d="M 56.9367,637.796 H 426.516 V 283.098 H 56.9367 Z"
         id="path1131" />
    </clipPath>
    <clipPath
       clipPathUnits="userSpaceOnUse"
       id="clipPath1137">
      <path
         d="M 61.3454,633.681 H 615.993 V 283.098 H 61.3454 Z"
         id="path1135" />
    </clipPath>
    <clipPath
       clipPathUnits="userSpaceOnUse"
       id="clipPath1141">
      <path
         d="M 396.129,727.044 H 1098.48 V 283.098 H 396.129 Z"
         id="path1139" />
    </clipPath>
    <clipPath
       clipPathUnits="userSpaceOnUse"
       id="clipPath1145">
      <path
         d="M 825.351,930.394 H 1849.43 V 283.098 H 825.351 Z"
         id="path1143" />
    </clipPath>
    <clipPath
       clipPathUnits="userSpaceOnUse"
       id="clipPath1149">
      <path
         d="m 1468.8,998.234 h 419.56 V 283.098 H 1468.8 Z"
         id="path1147" />
    </clipPath>
    <clipPath
       clipPathUnits="userSpaceOnUse"
       id="clipPath1153">
      <path
         d="M 239.279,678.129 H 864.251 V 283.098 H 239.279 Z"
         id="path1151" />
    </clipPath>
    <clipPath
       clipPathUnits="userSpaceOnUse"
       id="clipPath1101-3">
      <path
         d="M 0,1080 H 1920 V 0 H 0 Z"
         id="path1099-9" />
    </clipPath>
    <clipPath
       clipPathUnits="userSpaceOnUse"
       id="clipPath1109-2">
      <path
         d="M 56.9367,1110.13 H 1888.36 V 283.098 H 56.9367 Z"
         id="path1107-9" />
    </clipPath>
    <clipPath
       clipPathUnits="userSpaceOnUse"
       id="clipPath1113-3">
      <path
         d="M 56.9367,1110.13 H 1888.36 V 283.098 H 56.9367 Z"
         id="path1111-6" />
    </clipPath>
    <clipPath
       clipPathUnits="userSpaceOnUse"
       id="clipPath1117-5">
      <path
         d="M 1857.973,286.01 H 1302.304 62.396 v 507.98 h 1795.577 z"
         id="path1115-7" />
    </clipPath>
    <clipPath
       clipPathUnits="userSpaceOnUse"
       id="clipPath1121-4">
      <path
         d="M 56.9367,535.762 H 229.818 V 283.098 H 56.9367 Z"
         id="path1119-0" />
    </clipPath>
    <clipPath
       clipPathUnits="userSpaceOnUse"
       id="clipPath1125-2">
      <path
         d="M 541.493,828.151 H 1403.8 V 283.098 H 541.493 Z"
         id="path1123-7" />
    </clipPath>
    <clipPath
       clipPathUnits="userSpaceOnUse"
       id="clipPath1129-4">
      <path
         d="m 1101.3,1110.13 h 787.06 V 283.098 H 1101.3 Z"
         id="path1127-7" />
    </clipPath>
    <clipPath
       clipPathUnits="userSpaceOnUse"
       id="clipPath1133-9">
      <path
         d="M 56.9367,637.796 H 426.516 V 283.098 H 56.9367 Z"
         id="path1131-9" />
    </clipPath>
    <clipPath
       clipPathUnits="userSpaceOnUse"
       id="clipPath1137-5">
      <path
         d="M 61.3454,633.681 H 615.993 V 283.098 H 61.3454 Z"
         id="path1135-4" />
    </clipPath>
    <clipPath
       clipPathUnits="userSpaceOnUse"
       id="clipPath1141-8">
      <path
         d="M 396.129,727.044 H 1098.48 V 283.098 H 396.129 Z"
         id="path1139-4" />
    </clipPath>
    <clipPath
       clipPathUnits="userSpaceOnUse"
       id="clipPath1145-4">
      <path
         d="M 825.351,930.394 H 1849.43 V 283.098 H 825.351 Z"
         id="path1143-6" />
    </clipPath>
    <clipPath
       clipPathUnits="userSpaceOnUse"
       id="clipPath1149-3">
      <path
         d="m 1468.8,998.234 h 419.56 V 283.098 H 1468.8 Z"
         id="path1147-8" />
    </clipPath>
    <clipPath
       clipPathUnits="userSpaceOnUse"
       id="clipPath1153-8">
      <path
         d="M 239.279,678.129 H 864.251 V 283.098 H 239.279 Z"
         id="path1151-8" />
    </clipPath>
  </defs>
  <sodipodi:namedview
     id="base"
     pagecolor="#ffffff"
     bordercolor="#666666"
     borderopacity="1.0"
     inkscape:pageopacity="0.0"
     inkscape:pageshadow="2"
     inkscape:zoom="0.35"
     inkscape:cx="-152.39449"
     inkscape:cy="-524.0519"
     inkscape:document-units="mm"
     inkscape:current-layer="layer1"
     inkscape:document-rotation="0"
     showgrid="false"
     inkscape:pagecheckerboard="true"
     inkscape:window-width="1920"
     inkscape:window-height="1017"
     inkscape:window-x="-8"
     inkscape:window-y="-8"
     inkscape:window-maximized="1" />
  <metadata
     id="metadata111">
    <rdf:RDF>
      <cc:Work
         rdf:about="">
        <dc:format>image/svg+xml</dc:format>
        <dc:type
           rdf:resource="http://purl.org/dc/dcmitype/StillImage" />
        <dc:title></dc:title>
      </cc:Work>
    </rdf:RDF>
  </metadata>
  <g
     inkscape:label="Layer 1"
     inkscape:groupmode="layer"
     id="layer1"
     transform="translate(-145.97058,-286.63847)">
    <g
       id="g2197"
       transform="matrix(0.35277777,0,0,-0.35277777,177.27251,335.58727)">
      <path
         d="m 0,0 v -188.115 c 0,-14.671 12.003,-26.674 26.674,-26.674 v 0 c 14.671,0 26.674,12.003 26.674,26.674 V 0 c 0,14.671 -12.003,26.674 -26.674,26.674 v 0 C 12.003,26.674 0,14.671 0,0"
         style="fill:#231f20;fill-opacity:1;fill-rule:nonzero;stroke:none"
         id="path2199" />
    </g>
    <g
       id="g2201"
       transform="matrix(0.35277777,0,0,-0.35277777,203.37164,347.9618)">
      <path
         d="m 0,0 v -153.038 c 0,-14.67 12.003,-26.674 26.674,-26.674 v 0 c 14.671,0 26.674,12.004 26.674,26.674 V 0 c 0,14.671 -12.003,26.674 -26.674,26.674 v 0 C 12.003,26.674 0,14.671 0,0"
         style="fill:#231f20;fill-opacity:1;fill-rule:nonzero;stroke:none"
         id="path2203" />
    </g>
    <g
       id="g2205"
       transform="matrix(0.35277777,0,0,-0.35277777,229.47081,364.52034)">
      <path
         d="m 0,0 v -106.1 c 0,-14.671 12.003,-26.674 26.674,-26.674 v 0 c 14.671,0 26.674,12.003 26.674,26.674 V 0 c 0,14.671 -12.003,26.674 -26.674,26.674 v 0 C 12.003,26.674 0,14.671 0,0"
         style="fill:#231f20;fill-opacity:1;fill-rule:nonzero;stroke:none"
         id="path2207" />
    </g>
    <g
       id="g2209"
       transform="matrix(0.35277777,0,0,-0.35277777,248.29091,342.04907)">
      <path
         d="m 0,0 c 0,14.715 -11.95,26.648 -26.683,26.648 -14.731,0 -26.665,-11.933 -26.665,-26.648 0,-14.749 11.934,-26.683 26.665,-26.683 C -11.95,-26.683 0,-14.749 0,0"
         style="fill:#231f20;fill-opacity:1;fill-rule:nonzero;stroke:none"
         id="path2211" />
    </g>
    <g
       id="g2213"
       transform="matrix(0.35277777,0,0,-0.35277777,214.15476,307.61534)">
      <path
         d="m 0,0 c -73.786,0 -133.817,-60.03 -133.817,-133.815 0,-73.787 60.031,-133.817 133.817,-133.817 73.786,0 133.817,60.03 133.817,133.817 C 133.817,-60.03 73.786,0 0,0 m 0,-327.094 c -106.574,0 -193.278,86.705 -193.278,193.279 0,106.573 86.704,193.277 193.278,193.277 106.574,0 193.278,-86.704 193.278,-193.277 0,-106.574 -86.704,-193.279 -193.278,-193.279"
         style="fill:#231f20;fill-opacity:1;fill-rule:nonzero;stroke:none"
         id="path2215" />
    </g>
    <g
       id="g2217"
       transform="matrix(0.35277777,0,0,-0.35277777,284.43401,426.1914)">
      <path
         d="m 0,0 v 0 c -16.456,-16.456 -43.383,-16.456 -59.839,0 l -39.189,39.19 c -15.887,15.886 -15.887,41.883 0,57.77 l 2.068,2.068 c 15.887,15.887 41.883,15.887 57.77,0 L 0,59.838 C 16.456,43.383 16.456,16.456 0,0"
         style="fill:#231f20;fill-opacity:1;fill-rule:nonzero;stroke:none"
         id="path2219" />
    </g>
  </g>
</svg>
