<?xml version="1.0" encoding="UTF-8" standalone="no"?>
<svg
   xmlns:dc="http://purl.org/dc/elements/1.1/"
   xmlns:cc="http://creativecommons.org/ns#"
   xmlns:rdf="http://www.w3.org/1999/02/22-rdf-syntax-ns#"
   xmlns:svg="http://www.w3.org/2000/svg"
   xmlns="http://www.w3.org/2000/svg"
   xmlns:sodipodi="http://sodipodi.sourceforge.net/DTD/sodipodi-0.dtd"
   xmlns:inkscape="http://www.inkscape.org/namespaces/inkscape"
   width="143.26341mm"
   height="143.26376mm"
   viewBox="0 0 143.26341 143.26376"
   version="1.1"
   id="svg114"
   sodipodi:docname="icon_education.svg"
   inkscape:version="1.0.2-2 (e86c870879, 2021-01-15)">
  <defs
     id="defs108" />
  <sodipodi:namedview
     id="base"
     pagecolor="#ffffff"
     bordercolor="#666666"
     borderopacity="1.0"
     inkscape:pageopacity="0.0"
     inkscape:pageshadow="2"
     inkscape:zoom="0.35"
     inkscape:cx="-247.02465"
     inkscape:cy="-18.449221"
     inkscape:document-units="mm"
     inkscape:current-layer="layer1"
     inkscape:document-rotation="0"
     showgrid="false"
     inkscape:pagecheckerboard="true"
     inkscape:window-width="1920"
     inkscape:window-height="1017"
     inkscape:window-x="-8"
     inkscape:window-y="-8"
     inkscape:window-maximized="1" />
  <metadata
     id="metadata111">
    <rdf:RDF>
      <cc:Work
         rdf:about="">
        <dc:format>image/svg+xml</dc:format>
        <dc:type
           rdf:resource="http://purl.org/dc/dcmitype/StillImage" />
        <dc:title></dc:title>
      </cc:Work>
    </rdf:RDF>
  </metadata>
  <g
     inkscape:label="Layer 1"
     inkscape:groupmode="layer"
     id="layer1"
     transform="translate(-171.00815,-152.86442)">
    <g
       id="g512"
       transform="matrix(0.35277777,0,0,-0.35277777,314.27156,224.4963)">
      <path
         d="m 0,0 c 0,-112.142 -90.909,-203.051 -203.051,-203.051 -112.141,0 -203.05,90.909 -203.05,203.051 0,112.142 90.909,203.051 203.05,203.051 C -90.909,203.051 0,112.142 0,0"
         style="fill:#163d7d;fill-opacity:1;fill-rule:nonzero;stroke:none"
         id="path514" />
    </g>
    <g
       id="g516"
       transform="matrix(0.35277777,0,0,-0.35277777,293.78688,224.4963)">
      <path
         d="m 0,0 c 0,-80.072 -64.911,-144.984 -144.984,-144.984 -80.072,0 -144.984,64.912 -144.984,144.984 0,80.072 64.912,144.984 144.984,144.984 C -64.911,144.984 0,80.072 0,0"
         style="fill:#1c54a5;fill-opacity:1;fill-rule:nonzero;stroke:none"
         id="path518" />
    </g>
    <g
       id="g520"
       transform="matrix(0.35277777,0,0,-0.35277777,284.42917,227.28561)">
      <path
         d="m 0,0 v 44.435 l -6.785,-2.3 V 0 Z"
         style="fill:#ffffff;fill-opacity:1;fill-rule:nonzero;stroke:none"
         id="path522" />
    </g>
    <g
       id="g524"
       transform="matrix(0.35277777,0,0,-0.35277777,270.03555,220.93564)">
      <path
         d="m 0,0 -76.013,-25.775 c -0.697,-0.24 -1.433,-0.359 -2.165,-0.359 -0.735,0 -1.476,0.119 -2.174,0.359 L -156.361,0 v -63.746 h 0.081 l -0.173,-0.875 c 0,-7.584 35.049,-24.516 78.229,-24.516 43.177,0 78.134,16.932 78.134,24.516 l -0.178,0.875 H 0 Z"
         style="fill:#ffffff;fill-opacity:1;fill-rule:nonzero;stroke:none"
         id="path526" />
    </g>
    <g
       id="g528"
       transform="matrix(0.35277777,0,0,-0.35277777,214.8749,216.49177)">
      <path
         d="M 0,0 78.182,-26.511 156.361,0 l 34.016,11.538 6.785,2.3 3.572,1.211 L 78.182,56.322 -44.375,15.049 Z"
         style="fill:#ffffff;fill-opacity:1;fill-rule:nonzero;stroke:none"
         id="path530" />
    </g>
    <g
       id="g532"
       transform="matrix(0.35277777,0,0,-0.35277777,280.40482,230.95838)">
      <path
         d="m 0,0 v -25.942 c 0,-4.427 3.584,-8.014 8.015,-8.014 4.428,0 8.014,3.587 8.014,8.014 V 0 c 0,2.192 -0.884,4.176 -2.306,5.621 H 2.311 C 0.887,4.176 0,2.192 0,0"
         style="fill:#ffffff;fill-opacity:1;fill-rule:nonzero;stroke:none"
         id="path534" />
    </g>
    <g
       id="g536"
       transform="matrix(0.35277777,0,0,-0.35277777,280.85916,227.28561)">
      <path
         d="m 0,0 v -4.79 h 1.023 11.412 1.016 V 0 H 10.12 3.335 Z"
         style="fill:#ffffff;fill-opacity:1;fill-rule:nonzero;stroke:none"
         id="path538" />
    </g>
  </g>
</svg>
