<?xml version="1.0" encoding="UTF-8" standalone="no"?>
<svg
   xmlns:dc="http://purl.org/dc/elements/1.1/"
   xmlns:cc="http://creativecommons.org/ns#"
   xmlns:rdf="http://www.w3.org/1999/02/22-rdf-syntax-ns#"
   xmlns:svg="http://www.w3.org/2000/svg"
   xmlns="http://www.w3.org/2000/svg"
   xmlns:sodipodi="http://sodipodi.sourceforge.net/DTD/sodipodi-0.dtd"
   xmlns:inkscape="http://www.inkscape.org/namespaces/inkscape"
   width="143.26341mm"
   height="143.26376mm"
   viewBox="0 0 143.26341 143.26376"
   version="1.1"
   id="svg114"
   sodipodi:docname="icon_criminal_justice.svg"
   inkscape:version="1.0.2-2 (e86c870879, 2021-01-15)">
  <defs
     id="defs108" />
  <sodipodi:namedview
     id="base"
     pagecolor="#ffffff"
     bordercolor="#666666"
     borderopacity="1.0"
     inkscape:pageopacity="0.0"
     inkscape:pageshadow="2"
     inkscape:zoom="0.35"
     inkscape:cx="592.20195"
     inkscape:cy="535.0611"
     inkscape:document-units="mm"
     inkscape:current-layer="layer1"
     inkscape:document-rotation="0"
     showgrid="false"
     inkscape:pagecheckerboard="true"
     inkscape:window-width="1920"
     inkscape:window-height="1017"
     inkscape:window-x="-8"
     inkscape:window-y="-8"
     inkscape:window-maximized="1" />
  <metadata
     id="metadata111">
    <rdf:RDF>
      <cc:Work
         rdf:about="">
        <dc:format>image/svg+xml</dc:format>
        <dc:type
           rdf:resource="http://purl.org/dc/dcmitype/StillImage" />
        <dc:title></dc:title>
      </cc:Work>
    </rdf:RDF>
  </metadata>
  <g
     inkscape:label="Layer 1"
     inkscape:groupmode="layer"
     id="layer1"
     transform="translate(51.037213,-6.414817)">
    <g
       id="g28"
       transform="matrix(0.35277777,0,0,-0.35277777,92.226192,78.046696)">
      <path
         d="m 0,0 c 0,-112.142 -90.909,-203.051 -203.051,-203.051 -112.141,0 -203.05,90.909 -203.05,203.051 0,112.142 90.909,203.051 203.05,203.051 C -90.909,203.051 0,112.142 0,0"
         style="fill:#163d7d;fill-opacity:1;fill-rule:nonzero;stroke:none"
         id="path30" />
    </g>
    <g
       id="g32"
       transform="matrix(0.35277777,0,0,-0.35277777,71.741516,78.046696)">
      <path
         d="m 0,0 c 0,-80.072 -64.911,-144.984 -144.984,-144.984 -80.072,0 -144.984,64.912 -144.984,144.984 0,80.072 64.912,144.984 144.984,144.984 C -64.911,144.984 0,80.072 0,0"
         style="fill:#1c54a5;fill-opacity:1;fill-rule:nonzero;stroke:none"
         id="path34" />
    </g>
    <g
       id="g36"
       transform="matrix(0.35277777,0,0,-0.35277777,24.869486,54.192887)">
      <path
         d="m 0,0 h -24.387 v -127.439 l 0.034,-20.319 h -52.421 v -12.453 H -24.387 0 52.386 v 12.453 l -52.141,-0.2 z"
         style="fill:#ffffff;fill-opacity:1;fill-rule:nonzero;stroke:none"
         id="path38" />
    </g>
    <g
       id="g40"
       transform="matrix(0.35277777,0,0,-0.35277777,42.324718,103.86865)">
      <path
         d="m 0,0 h -122.284 c -5.909,0 -10.699,-4.79 -10.699,-10.699 0,-5.909 4.79,-10.699 10.699,-10.699 H 0 c 5.909,0 10.699,4.79 10.699,10.699 C 10.699,-4.79 5.909,0 0,0"
         style="fill:#ffffff;fill-opacity:1;fill-rule:nonzero;stroke:none"
         id="path42" />
    </g>
    <g
       id="g44"
       transform="matrix(0.35277777,0,0,-0.35277777,37.980859,76.094389)">
      <path
         d="M 0,0 25,52.263 50.282,0 Z M -150.834,0 -125.836,52.263 -100.552,0 Z M 25,73.585 H -125.836 L -161.174,0 c 1.903,-17.816 16.978,-31.695 35.301,-31.695 31.402,0 35.376,31.695 35.376,31.695 l -27.965,58.231 H 17.627 L -10.339,0 C -8.435,-17.816 6.639,-31.695 24.963,-31.695 56.363,-31.695 60.34,0 60.34,0 Z"
         style="fill:#ffffff;fill-opacity:1;fill-rule:nonzero;stroke:none"
         id="path46" />
    </g>
    <g
       id="g48"
       transform="matrix(0.35277777,0,0,-0.35277777,26.161711,49.865609)">
      <path
         d="m 0,0 c 0,-9.136 -7.406,-16.542 -16.542,-16.542 -9.135,0 -16.541,7.406 -16.541,16.542 0,9.136 7.406,16.542 16.541,16.542 C -7.406,16.542 0,9.136 0,0"
         style="fill:#ffffff;fill-opacity:1;fill-rule:nonzero;stroke:none"
         id="path50" />
    </g>
  </g>
</svg>
