<?xml version="1.0" encoding="UTF-8" standalone="no"?>
<svg
   xmlns:dc="http://purl.org/dc/elements/1.1/"
   xmlns:cc="http://creativecommons.org/ns#"
   xmlns:rdf="http://www.w3.org/1999/02/22-rdf-syntax-ns#"
   xmlns:svg="http://www.w3.org/2000/svg"
   xmlns="http://www.w3.org/2000/svg"
   xmlns:sodipodi="http://sodipodi.sourceforge.net/DTD/sodipodi-0.dtd"
   xmlns:inkscape="http://www.inkscape.org/namespaces/inkscape"
   width="170.90143mm"
   height="70.262749mm"
   viewBox="0 0 170.90142 70.262743"
   version="1.1"
   id="svg114"
   sodipodi:docname="icon_ux_download_info__active.svg"
   inkscape:version="1.0.2-2 (e86c870879, 2021-01-15)">
  <defs
     id="defs108">
    <clipPath
       clipPathUnits="userSpaceOnUse"
       id="clipPath1101">
      <path
         d="M 0,1080 H 1920 V 0 H 0 Z"
         id="path1099" />
    </clipPath>
    <clipPath
       clipPathUnits="userSpaceOnUse"
       id="clipPath1109">
      <path
         d="M 56.9367,1110.13 H 1888.36 V 283.098 H 56.9367 Z"
         id="path1107" />
    </clipPath>
    <clipPath
       clipPathUnits="userSpaceOnUse"
       id="clipPath1113">
      <path
         d="M 56.9367,1110.13 H 1888.36 V 283.098 H 56.9367 Z"
         id="path1111" />
    </clipPath>
    <clipPath
       clipPathUnits="userSpaceOnUse"
       id="clipPath1117">
      <path
         d="M 1857.973,286.01 H 1302.304 62.396 v 507.98 h 1795.577 z"
         id="path1115" />
    </clipPath>
    <clipPath
       clipPathUnits="userSpaceOnUse"
       id="clipPath1121">
      <path
         d="M 56.9367,535.762 H 229.818 V 283.098 H 56.9367 Z"
         id="path1119" />
    </clipPath>
    <clipPath
       clipPathUnits="userSpaceOnUse"
       id="clipPath1125">
      <path
         d="M 541.493,828.151 H 1403.8 V 283.098 H 541.493 Z"
         id="path1123" />
    </clipPath>
    <clipPath
       clipPathUnits="userSpaceOnUse"
       id="clipPath1129">
      <path
         d="m 1101.3,1110.13 h 787.06 V 283.098 H 1101.3 Z"
         id="path1127" />
    </clipPath>
    <clipPath
       clipPathUnits="userSpaceOnUse"
       id="clipPath1133">
      <path
         d="M 56.9367,637.796 H 426.516 V 283.098 H 56.9367 Z"
         id="path1131" />
    </clipPath>
    <clipPath
       clipPathUnits="userSpaceOnUse"
       id="clipPath1137">
      <path
         d="M 61.3454,633.681 H 615.993 V 283.098 H 61.3454 Z"
         id="path1135" />
    </clipPath>
    <clipPath
       clipPathUnits="userSpaceOnUse"
       id="clipPath1141">
      <path
         d="M 396.129,727.044 H 1098.48 V 283.098 H 396.129 Z"
         id="path1139" />
    </clipPath>
    <clipPath
       clipPathUnits="userSpaceOnUse"
       id="clipPath1145">
      <path
         d="M 825.351,930.394 H 1849.43 V 283.098 H 825.351 Z"
         id="path1143" />
    </clipPath>
    <clipPath
       clipPathUnits="userSpaceOnUse"
       id="clipPath1149">
      <path
         d="m 1468.8,998.234 h 419.56 V 283.098 H 1468.8 Z"
         id="path1147" />
    </clipPath>
    <clipPath
       clipPathUnits="userSpaceOnUse"
       id="clipPath1153">
      <path
         d="M 239.279,678.129 H 864.251 V 283.098 H 239.279 Z"
         id="path1151" />
    </clipPath>
    <clipPath
       clipPathUnits="userSpaceOnUse"
       id="clipPath1101-3">
      <path
         d="M 0,1080 H 1920 V 0 H 0 Z"
         id="path1099-9" />
    </clipPath>
    <clipPath
       clipPathUnits="userSpaceOnUse"
       id="clipPath1109-2">
      <path
         d="M 56.9367,1110.13 H 1888.36 V 283.098 H 56.9367 Z"
         id="path1107-9" />
    </clipPath>
    <clipPath
       clipPathUnits="userSpaceOnUse"
       id="clipPath1113-3">
      <path
         d="M 56.9367,1110.13 H 1888.36 V 283.098 H 56.9367 Z"
         id="path1111-6" />
    </clipPath>
    <clipPath
       clipPathUnits="userSpaceOnUse"
       id="clipPath1117-5">
      <path
         d="M 1857.973,286.01 H 1302.304 62.396 v 507.98 h 1795.577 z"
         id="path1115-7" />
    </clipPath>
    <clipPath
       clipPathUnits="userSpaceOnUse"
       id="clipPath1121-4">
      <path
         d="M 56.9367,535.762 H 229.818 V 283.098 H 56.9367 Z"
         id="path1119-0" />
    </clipPath>
    <clipPath
       clipPathUnits="userSpaceOnUse"
       id="clipPath1125-2">
      <path
         d="M 541.493,828.151 H 1403.8 V 283.098 H 541.493 Z"
         id="path1123-7" />
    </clipPath>
    <clipPath
       clipPathUnits="userSpaceOnUse"
       id="clipPath1129-4">
      <path
         d="m 1101.3,1110.13 h 787.06 V 283.098 H 1101.3 Z"
         id="path1127-7" />
    </clipPath>
    <clipPath
       clipPathUnits="userSpaceOnUse"
       id="clipPath1133-9">
      <path
         d="M 56.9367,637.796 H 426.516 V 283.098 H 56.9367 Z"
         id="path1131-9" />
    </clipPath>
    <clipPath
       clipPathUnits="userSpaceOnUse"
       id="clipPath1137-5">
      <path
         d="M 61.3454,633.681 H 615.993 V 283.098 H 61.3454 Z"
         id="path1135-4" />
    </clipPath>
    <clipPath
       clipPathUnits="userSpaceOnUse"
       id="clipPath1141-8">
      <path
         d="M 396.129,727.044 H 1098.48 V 283.098 H 396.129 Z"
         id="path1139-4" />
    </clipPath>
    <clipPath
       clipPathUnits="userSpaceOnUse"
       id="clipPath1145-4">
      <path
         d="M 825.351,930.394 H 1849.43 V 283.098 H 825.351 Z"
         id="path1143-6" />
    </clipPath>
    <clipPath
       clipPathUnits="userSpaceOnUse"
       id="clipPath1149-3">
      <path
         d="m 1468.8,998.234 h 419.56 V 283.098 H 1468.8 Z"
         id="path1147-8" />
    </clipPath>
    <clipPath
       clipPathUnits="userSpaceOnUse"
       id="clipPath1153-8">
      <path
         d="M 239.279,678.129 H 864.251 V 283.098 H 239.279 Z"
         id="path1151-8" />
    </clipPath>
  </defs>
  <sodipodi:namedview
     id="base"
     pagecolor="#ffffff"
     bordercolor="#666666"
     borderopacity="1.0"
     inkscape:pageopacity="0.0"
     inkscape:pageshadow="2"
     inkscape:zoom="0.35"
     inkscape:cx="-706.79163"
     inkscape:cy="-393.08598"
     inkscape:document-units="mm"
     inkscape:current-layer="layer1"
     inkscape:document-rotation="0"
     showgrid="false"
     inkscape:pagecheckerboard="true"
     inkscape:window-width="1920"
     inkscape:window-height="1017"
     inkscape:window-x="-8"
     inkscape:window-y="-8"
     inkscape:window-maximized="1" />
  <metadata
     id="metadata111">
    <rdf:RDF>
      <cc:Work
         rdf:about="">
        <dc:format>image/svg+xml</dc:format>
        <dc:type
           rdf:resource="http://purl.org/dc/dcmitype/StillImage" />
        <dc:title></dc:title>
      </cc:Work>
    </rdf:RDF>
  </metadata>
  <g
     inkscape:label="Layer 1"
     inkscape:groupmode="layer"
     id="layer1"
     transform="translate(-292.65483,-251.98707)">
    <g
       id="g2761"
       transform="matrix(0.35277777,0,0,-0.35277777,428.42488,322.24982)">
      <path
         d="m 0,0 h -285.275 c -54.772,0 -99.585,44.813 -99.585,99.585 v 0 c 0,54.772 44.813,99.585 99.585,99.585 H 0 c 54.772,0 99.585,-44.813 99.585,-99.585 v 0 C 99.585,44.813 54.772,0 0,0"
         style="fill:#ededed;fill-opacity:1;fill-rule:nonzero;stroke:none"
         id="path2763" />
    </g>
    <g
       id="g2765"
       transform="matrix(0.35277777,0,0,-0.35277777,338.6562,316.11036)">
      <path
         d="m 0,0 v 0 c -42.585,0 -77.107,34.522 -77.107,77.107 v 0 c 0,42.585 34.522,77.107 77.107,77.107 v 0 c 42.585,0 77.107,-34.522 77.107,-77.107 v 0 C 77.107,34.522 42.585,0 0,0"
         style="fill:#3aa38f;fill-opacity:1;fill-rule:nonzero;stroke:none"
         id="path2767" />
    </g>
    <g
       id="g2769"
       transform="matrix(0.35277777,0,0,-0.35277777,353.24243,304.15419)">
      <path
         d="m 0,0 h -82.692 c -9.159,0 -16.584,7.425 -16.584,16.584 V 42.07 c 0,2.909 1.961,5.602 4.823,6.119 3.763,0.681 7.039,-2.192 7.039,-5.83 V 16.582 c 0,-2.607 2.113,-4.721 4.72,-4.721 h 82.692 c 2.608,0 4.723,2.115 4.723,4.723 V 42.07 c 0,2.909 1.961,5.602 4.823,6.119 3.762,0.681 7.038,-2.192 7.038,-5.83 V 16.582 C 16.582,7.424 9.158,0 0,0"
         style="fill:#ffffff;fill-opacity:1;fill-rule:nonzero;stroke:none"
         id="path2771" />
    </g>
    <g
       id="g2773"
       transform="matrix(0.35277777,0,0,-0.35277777,349.1555,280.53134)">
      <path
         d="m 0,0 c -2.431,2.198 -6.184,2.003 -8.376,-0.429 l -12.566,-13.923 c -0.054,-0.06 -0.153,-0.022 -0.153,0.058 v 37.631 c 0,4.569 -3.336,8.685 -7.889,9.082 -5.135,0.448 -9.444,-3.59 -9.444,-8.632 v -38.081 c 0,-0.08 -0.099,-0.118 -0.153,-0.058 l -12.567,13.923 c -2.192,2.432 -5.947,2.627 -8.376,0.429 -2.432,-2.194 -2.625,-5.945 -0.429,-8.376 l 25.789,-28.574 c 1.123,-1.248 2.724,-1.958 4.402,-1.958 1.679,0 3.279,0.71 4.403,1.958 L 0.429,-8.376 C 2.625,-5.945 2.433,-2.194 0,0"
         style="fill:#ffffff;fill-opacity:1;fill-rule:nonzero;stroke:none"
         id="path2775" />
    </g>
    <g
       id="g2777"
       transform="matrix(0.35277777,0,0,-0.35277777,412.32763,314.24487)">
      <path
         d="m 0,0 v 0 c -42.585,0 -77.107,34.522 -77.107,77.107 v 0 c 0,42.585 34.522,77.107 77.107,77.107 v 0 c 42.585,0 77.107,-34.522 77.107,-77.107 v 0 C 77.107,34.522 42.585,0 0,0"
         style="fill:#3aa38f;fill-opacity:1;fill-rule:nonzero;stroke:none"
         id="path2779" />
    </g>
    <g
       id="g2781"
       transform="matrix(0.35277777,0,0,-0.35277777,406.25477,278.83328)">
      <path
         d="m 0,0 v 0 h 32.22 c 0.056,0 0.098,-0.052 0.086,-0.106 L 19.903,-58.46 c 0,-0.002 0,-0.004 -10e-4,-0.006 l -0.622,-4.293 c 0,-2.123 1.223,-3.21 3.669,-3.21 2.368,0.11 4.764,0.837 7.153,2.164 0.065,0.036 0.142,-0.016 0.126,-0.089 l -2.646,-12.227 c -0.005,-0.025 -0.02,-0.047 -0.042,-0.06 -4.372,-2.627 -9.498,-4.006 -15.436,-4.118 -9.356,-0.323 -14.328,4.106 -14.983,13.214 0,0.004 0,0.008 0,0.012 10e-4,2.33 0.381,5.329 1.11,8.94 l 9.066,42.744 c 0.011,0.055 -0.031,0.106 -0.086,0.106 H -3.072 c -0.056,0 -0.097,0.051 -0.086,0.106 L 0,0 v 0.165 z"
         style="fill:#ffffff;fill-opacity:1;fill-rule:evenodd;stroke:none"
         id="path2783" />
    </g>
    <g
       id="g2785"
       transform="matrix(0.35277777,0,0,-0.35277777,419.52228,270.34252)">
      <path
         d="m 0,0 v 0 c -0.105,-3.945 -1.658,-7.345 -4.619,-10.199 -3.105,-2.775 -6.586,-4.188 -10.529,-4.297 -6.056,0.326 -9.296,3.503 -9.705,9.534 0,0.006 0,0.012 0,0.018 0.191,4.049 1.742,7.447 4.62,10.189 2.96,2.769 6.415,4.269 10.326,4.458 0.005,0 0.011,0 0.017,0 C -3.723,9.296 -0.435,6.056 0,0"
         style="fill:#ffffff;fill-opacity:1;fill-rule:evenodd;stroke:none"
         id="path2787" />
    </g>
  </g>
</svg>
