<?xml version="1.0" encoding="UTF-8" standalone="no"?>
<svg
   xmlns:dc="http://purl.org/dc/elements/1.1/"
   xmlns:cc="http://creativecommons.org/ns#"
   xmlns:rdf="http://www.w3.org/1999/02/22-rdf-syntax-ns#"
   xmlns:svg="http://www.w3.org/2000/svg"
   xmlns="http://www.w3.org/2000/svg"
   xmlns:sodipodi="http://sodipodi.sourceforge.net/DTD/sodipodi-0.dtd"
   xmlns:inkscape="http://www.inkscape.org/namespaces/inkscape"
   width="143.26341mm"
   height="143.26376mm"
   viewBox="0 0 143.26341 143.26376"
   version="1.1"
   id="svg114"
   sodipodi:docname="icon_housing.svg"
   inkscape:version="1.0.2-2 (e86c870879, 2021-01-15)">
  <defs
     id="defs108" />
  <sodipodi:namedview
     id="base"
     pagecolor="#ffffff"
     bordercolor="#666666"
     borderopacity="1.0"
     inkscape:pageopacity="0.0"
     inkscape:pageshadow="2"
     inkscape:zoom="0.35"
     inkscape:cx="-185.93189"
     inkscape:cy="-11.640891"
     inkscape:document-units="mm"
     inkscape:current-layer="layer1"
     inkscape:document-rotation="0"
     showgrid="false"
     inkscape:pagecheckerboard="true"
     inkscape:window-width="1920"
     inkscape:window-height="1017"
     inkscape:window-x="-8"
     inkscape:window-y="-8"
     inkscape:window-maximized="1" />
  <metadata
     id="metadata111">
    <rdf:RDF>
      <cc:Work
         rdf:about="">
        <dc:format>image/svg+xml</dc:format>
        <dc:type
           rdf:resource="http://purl.org/dc/dcmitype/StillImage" />
        <dc:title></dc:title>
      </cc:Work>
    </rdf:RDF>
  </metadata>
  <g
     inkscape:label="Layer 1"
     inkscape:groupmode="layer"
     id="layer1"
     transform="translate(-154.84401,-151.06305)">
    <g
       id="g821"
       transform="matrix(0.35277777,0,0,-0.35277777,298.10742,222.69493)">
      <path
         d="m 0,0 c 0,-112.142 -90.909,-203.051 -203.051,-203.051 -112.141,0 -203.05,90.909 -203.05,203.051 0,112.142 90.909,203.051 203.05,203.051 C -90.909,203.051 0,112.142 0,0"
         style="fill:#163d7d;fill-opacity:1;fill-rule:nonzero;stroke:none"
         id="path823" />
    </g>
    <g
       id="g825"
       transform="matrix(0.35277777,0,0,-0.35277777,277.62275,222.69493)">
      <path
         d="m 0,0 c 0,-80.072 -64.911,-144.984 -144.984,-144.984 -80.072,0 -144.984,64.912 -144.984,144.984 0,80.072 64.912,144.984 144.984,144.984 C -64.911,144.984 0,80.072 0,0"
         style="fill:#1c54a5;fill-opacity:1;fill-rule:nonzero;stroke:none"
         id="path827" />
    </g>
    <g
       id="g829"
       transform="matrix(0.35277777,0,0,-0.35277777,261.19406,220.74918)">
      <path
         d="m 0,0 -75.904,75.901 0.026,0.028 -9.767,9.77 c -3.487,3.489 -8.054,5.221 -12.626,5.216 -4.576,0.005 -9.147,-1.727 -12.634,-5.216 l -9.765,-9.77 0.028,-0.028 L -196.55,0 c -6.96,-6.959 -6.96,-18.247 0,-25.206 l 9.771,-9.765 17.211,17.208 12.849,12.852 v -85.882 c 0,-2.133 1.731,-3.866 3.861,-3.866 h 24.73 v 56.961 c 0,0.705 0.286,1.394 0.784,1.889 0.498,0.499 1.186,0.783 1.891,0.783 h 54.36 c 0.705,0 1.393,-0.284 1.889,-0.783 0.5,-0.495 0.784,-1.184 0.784,-1.889 v -56.961 h 24.732 c 2.128,0 3.859,1.733 3.859,3.866 V -4.911 L -26.982,-17.757 -9.767,-34.971 0,-25.206 C 6.96,-18.247 6.96,-6.959 0,0"
         style="fill:#ffffff;fill-opacity:1;fill-rule:nonzero;stroke:none"
         id="path831" />
    </g>
  </g>
</svg>
