<?xml version="1.0" encoding="UTF-8" standalone="no"?>
<svg
   xmlns:dc="http://purl.org/dc/elements/1.1/"
   xmlns:cc="http://creativecommons.org/ns#"
   xmlns:rdf="http://www.w3.org/1999/02/22-rdf-syntax-ns#"
   xmlns:svg="http://www.w3.org/2000/svg"
   xmlns="http://www.w3.org/2000/svg"
   xmlns:sodipodi="http://sodipodi.sourceforge.net/DTD/sodipodi-0.dtd"
   xmlns:inkscape="http://www.inkscape.org/namespaces/inkscape"
   width="54.403271mm"
   height="54.403271mm"
   viewBox="0 0 54.40327 54.403271"
   version="1.1"
   id="svg417"
   inkscape:version="1.0.2-2 (e86c870879, 2021-01-15)"
   sodipodi:docname="icon_ux_download__inactive.svg">
  <defs
     id="defs411" />
  <sodipodi:namedview
     id="base"
     pagecolor="#ffffff"
     bordercolor="#666666"
     borderopacity="1.0"
     inkscape:pageopacity="0.0"
     inkscape:pageshadow="2"
     inkscape:zoom="0.35"
     inkscape:cx="169.28649"
     inkscape:cy="108.32215"
     inkscape:document-units="mm"
     inkscape:current-layer="layer1"
     inkscape:document-rotation="0"
     showgrid="false"
     inkscape:window-width="1267"
     inkscape:window-height="1040"
     inkscape:window-x="26"
     inkscape:window-y="0"
     inkscape:window-maximized="0" />
  <metadata
     id="metadata414">
    <rdf:RDF>
      <cc:Work
         rdf:about="">
        <dc:format>image/svg+xml</dc:format>
        <dc:type
           rdf:resource="http://purl.org/dc/dcmitype/StillImage" />
        <dc:title></dc:title>
      </cc:Work>
    </rdf:RDF>
  </metadata>
  <g
     inkscape:label="Layer 1"
     inkscape:groupmode="layer"
     id="layer1"
     transform="translate(-61.042956,-119.50643)">
    <g
       id="g481"
       transform="matrix(0.35277777,0,0,-0.35277777,88.244592,173.9097)">
      <path
         d="m 0,0 v 0 c -42.585,0 -77.107,34.522 -77.107,77.107 v 0 c 0,42.585 34.522,77.107 77.107,77.107 v 0 c 42.585,0 77.107,-34.522 77.107,-77.107 v 0 C 77.107,34.522 42.585,0 0,0"
         style="fill:#231f20;fill-opacity:1;fill-rule:nonzero;stroke:none"
         id="path483" />
    </g>
    <g
       id="g485"
       transform="matrix(0.35277777,0,0,-0.35277777,102.83079,161.95353)">
      <path
         d="m 0,0 h -82.692 c -9.159,0 -16.584,7.425 -16.584,16.584 V 42.07 c 0,2.908 1.961,5.601 4.823,6.119 3.762,0.681 7.039,-2.192 7.039,-5.83 V 16.582 c 0,-2.607 2.113,-4.721 4.72,-4.721 h 82.692 c 2.608,0 4.723,2.115 4.723,4.723 V 42.07 c 0,2.908 1.96,5.601 4.823,6.119 3.762,0.681 7.038,-2.192 7.038,-5.83 V 16.582 C 16.582,7.424 9.158,0 0,0"
         style="fill:#ffffff;fill-opacity:1;fill-rule:nonzero;stroke:none"
         id="path487" />
    </g>
    <g
       id="g489"
       transform="matrix(0.35277777,0,0,-0.35277777,98.743894,138.33069)">
      <path
         d="m 0,0 c -2.431,2.198 -6.184,2.003 -8.376,-0.429 l -12.566,-13.923 c -0.054,-0.06 -0.153,-0.022 -0.153,0.058 v 37.631 c 0,4.57 -3.336,8.685 -7.889,9.082 -5.135,0.448 -9.444,-3.59 -9.444,-8.632 v -38.081 c 0,-0.08 -0.099,-0.118 -0.153,-0.058 l -12.567,13.923 c -2.192,2.432 -5.947,2.627 -8.376,0.429 -2.432,-2.194 -2.625,-5.945 -0.429,-8.376 l 25.789,-28.574 c 1.123,-1.248 2.724,-1.958 4.402,-1.958 1.679,0 3.279,0.71 4.403,1.958 L 0.429,-8.376 C 2.625,-5.945 2.433,-2.194 0,0"
         style="fill:#ffffff;fill-opacity:1;fill-rule:nonzero;stroke:none"
         id="path491" />
    </g>
  </g>
</svg>
