<?xml version="1.0" encoding="UTF-8" standalone="no"?>
<svg
   xmlns:dc="http://purl.org/dc/elements/1.1/"
   xmlns:cc="http://creativecommons.org/ns#"
   xmlns:rdf="http://www.w3.org/1999/02/22-rdf-syntax-ns#"
   xmlns:svg="http://www.w3.org/2000/svg"
   xmlns="http://www.w3.org/2000/svg"
   xmlns:sodipodi="http://sodipodi.sourceforge.net/DTD/sodipodi-0.dtd"
   xmlns:inkscape="http://www.inkscape.org/namespaces/inkscape"
   width="108.42386mm"
   height="108.42393mm"
   viewBox="0 0 108.42385 108.42392"
   version="1.1"
   id="svg114"
   sodipodi:docname="icon_ux_survey__active.svg"
   inkscape:version="1.0.2-2 (e86c870879, 2021-01-15)">
  <defs
     id="defs108">
    <clipPath
       clipPathUnits="userSpaceOnUse"
       id="clipPath1101">
      <path
         d="M 0,1080 H 1920 V 0 H 0 Z"
         id="path1099" />
    </clipPath>
    <clipPath
       clipPathUnits="userSpaceOnUse"
       id="clipPath1109">
      <path
         d="M 56.9367,1110.13 H 1888.36 V 283.098 H 56.9367 Z"
         id="path1107" />
    </clipPath>
    <clipPath
       clipPathUnits="userSpaceOnUse"
       id="clipPath1113">
      <path
         d="M 56.9367,1110.13 H 1888.36 V 283.098 H 56.9367 Z"
         id="path1111" />
    </clipPath>
    <clipPath
       clipPathUnits="userSpaceOnUse"
       id="clipPath1117">
      <path
         d="M 1857.973,286.01 H 1302.304 62.396 v 507.98 h 1795.577 z"
         id="path1115" />
    </clipPath>
    <clipPath
       clipPathUnits="userSpaceOnUse"
       id="clipPath1121">
      <path
         d="M 56.9367,535.762 H 229.818 V 283.098 H 56.9367 Z"
         id="path1119" />
    </clipPath>
    <clipPath
       clipPathUnits="userSpaceOnUse"
       id="clipPath1125">
      <path
         d="M 541.493,828.151 H 1403.8 V 283.098 H 541.493 Z"
         id="path1123" />
    </clipPath>
    <clipPath
       clipPathUnits="userSpaceOnUse"
       id="clipPath1129">
      <path
         d="m 1101.3,1110.13 h 787.06 V 283.098 H 1101.3 Z"
         id="path1127" />
    </clipPath>
    <clipPath
       clipPathUnits="userSpaceOnUse"
       id="clipPath1133">
      <path
         d="M 56.9367,637.796 H 426.516 V 283.098 H 56.9367 Z"
         id="path1131" />
    </clipPath>
    <clipPath
       clipPathUnits="userSpaceOnUse"
       id="clipPath1137">
      <path
         d="M 61.3454,633.681 H 615.993 V 283.098 H 61.3454 Z"
         id="path1135" />
    </clipPath>
    <clipPath
       clipPathUnits="userSpaceOnUse"
       id="clipPath1141">
      <path
         d="M 396.129,727.044 H 1098.48 V 283.098 H 396.129 Z"
         id="path1139" />
    </clipPath>
    <clipPath
       clipPathUnits="userSpaceOnUse"
       id="clipPath1145">
      <path
         d="M 825.351,930.394 H 1849.43 V 283.098 H 825.351 Z"
         id="path1143" />
    </clipPath>
    <clipPath
       clipPathUnits="userSpaceOnUse"
       id="clipPath1149">
      <path
         d="m 1468.8,998.234 h 419.56 V 283.098 H 1468.8 Z"
         id="path1147" />
    </clipPath>
    <clipPath
       clipPathUnits="userSpaceOnUse"
       id="clipPath1153">
      <path
         d="M 239.279,678.129 H 864.251 V 283.098 H 239.279 Z"
         id="path1151" />
    </clipPath>
    <clipPath
       clipPathUnits="userSpaceOnUse"
       id="clipPath1101-3">
      <path
         d="M 0,1080 H 1920 V 0 H 0 Z"
         id="path1099-9" />
    </clipPath>
    <clipPath
       clipPathUnits="userSpaceOnUse"
       id="clipPath1109-2">
      <path
         d="M 56.9367,1110.13 H 1888.36 V 283.098 H 56.9367 Z"
         id="path1107-9" />
    </clipPath>
    <clipPath
       clipPathUnits="userSpaceOnUse"
       id="clipPath1113-3">
      <path
         d="M 56.9367,1110.13 H 1888.36 V 283.098 H 56.9367 Z"
         id="path1111-6" />
    </clipPath>
    <clipPath
       clipPathUnits="userSpaceOnUse"
       id="clipPath1117-5">
      <path
         d="M 1857.973,286.01 H 1302.304 62.396 v 507.98 h 1795.577 z"
         id="path1115-7" />
    </clipPath>
    <clipPath
       clipPathUnits="userSpaceOnUse"
       id="clipPath1121-4">
      <path
         d="M 56.9367,535.762 H 229.818 V 283.098 H 56.9367 Z"
         id="path1119-0" />
    </clipPath>
    <clipPath
       clipPathUnits="userSpaceOnUse"
       id="clipPath1125-2">
      <path
         d="M 541.493,828.151 H 1403.8 V 283.098 H 541.493 Z"
         id="path1123-7" />
    </clipPath>
    <clipPath
       clipPathUnits="userSpaceOnUse"
       id="clipPath1129-4">
      <path
         d="m 1101.3,1110.13 h 787.06 V 283.098 H 1101.3 Z"
         id="path1127-7" />
    </clipPath>
    <clipPath
       clipPathUnits="userSpaceOnUse"
       id="clipPath1133-9">
      <path
         d="M 56.9367,637.796 H 426.516 V 283.098 H 56.9367 Z"
         id="path1131-9" />
    </clipPath>
    <clipPath
       clipPathUnits="userSpaceOnUse"
       id="clipPath1137-5">
      <path
         d="M 61.3454,633.681 H 615.993 V 283.098 H 61.3454 Z"
         id="path1135-4" />
    </clipPath>
    <clipPath
       clipPathUnits="userSpaceOnUse"
       id="clipPath1141-8">
      <path
         d="M 396.129,727.044 H 1098.48 V 283.098 H 396.129 Z"
         id="path1139-4" />
    </clipPath>
    <clipPath
       clipPathUnits="userSpaceOnUse"
       id="clipPath1145-4">
      <path
         d="M 825.351,930.394 H 1849.43 V 283.098 H 825.351 Z"
         id="path1143-6" />
    </clipPath>
    <clipPath
       clipPathUnits="userSpaceOnUse"
       id="clipPath1149-3">
      <path
         d="m 1468.8,998.234 h 419.56 V 283.098 H 1468.8 Z"
         id="path1147-8" />
    </clipPath>
    <clipPath
       clipPathUnits="userSpaceOnUse"
       id="clipPath1153-8">
      <path
         d="M 239.279,678.129 H 864.251 V 283.098 H 239.279 Z"
         id="path1151-8" />
    </clipPath>
  </defs>
  <sodipodi:namedview
     id="base"
     pagecolor="#ffffff"
     bordercolor="#666666"
     borderopacity="1.0"
     inkscape:pageopacity="0.0"
     inkscape:pageshadow="2"
     inkscape:zoom="0.35"
     inkscape:cx="-1425.3434"
     inkscape:cy="219.64782"
     inkscape:document-units="mm"
     inkscape:current-layer="layer1"
     inkscape:document-rotation="0"
     showgrid="false"
     inkscape:pagecheckerboard="true"
     inkscape:window-width="1920"
     inkscape:window-height="1017"
     inkscape:window-x="-8"
     inkscape:window-y="-8"
     inkscape:window-maximized="1" />
  <metadata
     id="metadata111">
    <rdf:RDF>
      <cc:Work
         rdf:about="">
        <dc:format>image/svg+xml</dc:format>
        <dc:type
           rdf:resource="http://purl.org/dc/dcmitype/StillImage" />
        <dc:title></dc:title>
      </cc:Work>
    </rdf:RDF>
  </metadata>
  <g
     inkscape:label="Layer 1"
     inkscape:groupmode="layer"
     id="layer1"
     transform="translate(-482.77166,-89.867916)">
    <g
       id="g2817"
       transform="matrix(0.35277777,0,0,-0.35277777,498.6501,182.41449)">
      <path
         d="m 0,0 c -60.013,60.013 -60.013,157.314 0,217.327 60.013,60.013 157.314,60.013 217.327,0 52.381,-52.381 59.037,-133.166 19.979,-192.772 l 19.932,-64.466 -64.467,19.931 C 133.165,-59.037 52.381,-52.381 0,0"
         style="fill:#f6921e;fill-opacity:1;fill-rule:nonzero;stroke:none"
         id="path2819" />
    </g>
    <g
       id="g2821"
       transform="matrix(0.35277777,0,0,-0.35277777,519.69558,171.2465)">
      <path
         d="m 0,0 h -29.916 c -4.219,0 -7.64,3.421 -7.64,7.64 v 95.656 c 0,4.22 3.421,7.64 7.64,7.64 H 0 c 4.22,0 7.64,-3.42 7.64,-7.64 V 7.64 C 7.64,3.421 4.22,0 0,0"
         style="fill:#ffffff;fill-opacity:1;fill-rule:nonzero;stroke:none"
         id="path2823" />
    </g>
    <g
       id="g2825"
       transform="matrix(0.35277777,0,0,-0.35277777,563.56336,135.00956)">
      <path
         d="m 0,0 h -3.421 -55.74 l 4.253,7.708 c 3.198,5.797 5.692,11.956 7.429,18.345 l 1.166,4.287 c 2.002,7.368 -1.28,15.151 -7.954,18.858 l -2.649,1.472 c -2.451,1.361 -5.541,0.429 -6.829,-2.061 C -72.38,31.915 -83.917,16.892 -97.818,4.243 L -102.48,0 v -94.502 h 15.058 69.942 3.708 c 5.717,0 10.351,4.635 10.351,10.352 v 2.923 c 0,5.717 -4.634,10.351 -10.351,10.351 h 6.515 c 5.948,0 10.77,4.822 10.77,10.77 v 2.085 c 0,5.948 -4.822,10.77 -10.77,10.77 h 3.203 c 6.058,0 10.97,4.911 10.97,10.97 v 1.686 c 0,6.058 -4.912,10.97 -10.97,10.97 H 0 c 6.195,0 11.217,5.022 11.217,11.216 v 1.192 C 11.217,-5.022 6.195,0 0,0"
         style="fill:#ffffff;fill-opacity:1;fill-rule:nonzero;stroke:none"
         id="path2827" />
    </g>
  </g>
</svg>
