<?xml version="1.0" encoding="UTF-8" standalone="no"?>
<svg
   xmlns:dc="http://purl.org/dc/elements/1.1/"
   xmlns:cc="http://creativecommons.org/ns#"
   xmlns:rdf="http://www.w3.org/1999/02/22-rdf-syntax-ns#"
   xmlns:svg="http://www.w3.org/2000/svg"
   xmlns="http://www.w3.org/2000/svg"
   xmlns:sodipodi="http://sodipodi.sourceforge.net/DTD/sodipodi-0.dtd"
   xmlns:inkscape="http://www.inkscape.org/namespaces/inkscape"
   width="142.81743mm"
   height="143.90694mm"
   viewBox="0 0 142.81742 143.90693"
   version="1.1"
   id="svg114"
   sodipodi:docname="icon_tool_tables__active.svg"
   inkscape:version="1.0.2-2 (e86c870879, 2021-01-15)">
  <defs
     id="defs108">
    <clipPath
       clipPathUnits="userSpaceOnUse"
       id="clipPath1101">
      <path
         d="M 0,1080 H 1920 V 0 H 0 Z"
         id="path1099" />
    </clipPath>
    <clipPath
       clipPathUnits="userSpaceOnUse"
       id="clipPath1109">
      <path
         d="M 56.9367,1110.13 H 1888.36 V 283.098 H 56.9367 Z"
         id="path1107" />
    </clipPath>
    <clipPath
       clipPathUnits="userSpaceOnUse"
       id="clipPath1113">
      <path
         d="M 56.9367,1110.13 H 1888.36 V 283.098 H 56.9367 Z"
         id="path1111" />
    </clipPath>
    <clipPath
       clipPathUnits="userSpaceOnUse"
       id="clipPath1117">
      <path
         d="M 1857.973,286.01 H 1302.304 62.396 v 507.98 h 1795.577 z"
         id="path1115" />
    </clipPath>
    <clipPath
       clipPathUnits="userSpaceOnUse"
       id="clipPath1121">
      <path
         d="M 56.9367,535.762 H 229.818 V 283.098 H 56.9367 Z"
         id="path1119" />
    </clipPath>
    <clipPath
       clipPathUnits="userSpaceOnUse"
       id="clipPath1125">
      <path
         d="M 541.493,828.151 H 1403.8 V 283.098 H 541.493 Z"
         id="path1123" />
    </clipPath>
    <clipPath
       clipPathUnits="userSpaceOnUse"
       id="clipPath1129">
      <path
         d="m 1101.3,1110.13 h 787.06 V 283.098 H 1101.3 Z"
         id="path1127" />
    </clipPath>
    <clipPath
       clipPathUnits="userSpaceOnUse"
       id="clipPath1133">
      <path
         d="M 56.9367,637.796 H 426.516 V 283.098 H 56.9367 Z"
         id="path1131" />
    </clipPath>
    <clipPath
       clipPathUnits="userSpaceOnUse"
       id="clipPath1137">
      <path
         d="M 61.3454,633.681 H 615.993 V 283.098 H 61.3454 Z"
         id="path1135" />
    </clipPath>
    <clipPath
       clipPathUnits="userSpaceOnUse"
       id="clipPath1141">
      <path
         d="M 396.129,727.044 H 1098.48 V 283.098 H 396.129 Z"
         id="path1139" />
    </clipPath>
    <clipPath
       clipPathUnits="userSpaceOnUse"
       id="clipPath1145">
      <path
         d="M 825.351,930.394 H 1849.43 V 283.098 H 825.351 Z"
         id="path1143" />
    </clipPath>
    <clipPath
       clipPathUnits="userSpaceOnUse"
       id="clipPath1149">
      <path
         d="m 1468.8,998.234 h 419.56 V 283.098 H 1468.8 Z"
         id="path1147" />
    </clipPath>
    <clipPath
       clipPathUnits="userSpaceOnUse"
       id="clipPath1153">
      <path
         d="M 239.279,678.129 H 864.251 V 283.098 H 239.279 Z"
         id="path1151" />
    </clipPath>
    <clipPath
       clipPathUnits="userSpaceOnUse"
       id="clipPath1101-3">
      <path
         d="M 0,1080 H 1920 V 0 H 0 Z"
         id="path1099-9" />
    </clipPath>
    <clipPath
       clipPathUnits="userSpaceOnUse"
       id="clipPath1109-2">
      <path
         d="M 56.9367,1110.13 H 1888.36 V 283.098 H 56.9367 Z"
         id="path1107-9" />
    </clipPath>
    <clipPath
       clipPathUnits="userSpaceOnUse"
       id="clipPath1113-3">
      <path
         d="M 56.9367,1110.13 H 1888.36 V 283.098 H 56.9367 Z"
         id="path1111-6" />
    </clipPath>
    <clipPath
       clipPathUnits="userSpaceOnUse"
       id="clipPath1117-5">
      <path
         d="M 1857.973,286.01 H 1302.304 62.396 v 507.98 h 1795.577 z"
         id="path1115-7" />
    </clipPath>
    <clipPath
       clipPathUnits="userSpaceOnUse"
       id="clipPath1121-4">
      <path
         d="M 56.9367,535.762 H 229.818 V 283.098 H 56.9367 Z"
         id="path1119-0" />
    </clipPath>
    <clipPath
       clipPathUnits="userSpaceOnUse"
       id="clipPath1125-2">
      <path
         d="M 541.493,828.151 H 1403.8 V 283.098 H 541.493 Z"
         id="path1123-7" />
    </clipPath>
    <clipPath
       clipPathUnits="userSpaceOnUse"
       id="clipPath1129-4">
      <path
         d="m 1101.3,1110.13 h 787.06 V 283.098 H 1101.3 Z"
         id="path1127-7" />
    </clipPath>
    <clipPath
       clipPathUnits="userSpaceOnUse"
       id="clipPath1133-9">
      <path
         d="M 56.9367,637.796 H 426.516 V 283.098 H 56.9367 Z"
         id="path1131-9" />
    </clipPath>
    <clipPath
       clipPathUnits="userSpaceOnUse"
       id="clipPath1137-5">
      <path
         d="M 61.3454,633.681 H 615.993 V 283.098 H 61.3454 Z"
         id="path1135-4" />
    </clipPath>
    <clipPath
       clipPathUnits="userSpaceOnUse"
       id="clipPath1141-8">
      <path
         d="M 396.129,727.044 H 1098.48 V 283.098 H 396.129 Z"
         id="path1139-4" />
    </clipPath>
    <clipPath
       clipPathUnits="userSpaceOnUse"
       id="clipPath1145-4">
      <path
         d="M 825.351,930.394 H 1849.43 V 283.098 H 825.351 Z"
         id="path1143-6" />
    </clipPath>
    <clipPath
       clipPathUnits="userSpaceOnUse"
       id="clipPath1149-3">
      <path
         d="m 1468.8,998.234 h 419.56 V 283.098 H 1468.8 Z"
         id="path1147-8" />
    </clipPath>
    <clipPath
       clipPathUnits="userSpaceOnUse"
       id="clipPath1153-8">
      <path
         d="M 239.279,678.129 H 864.251 V 283.098 H 239.279 Z"
         id="path1151-8" />
    </clipPath>
  </defs>
  <sodipodi:namedview
     id="base"
     pagecolor="#ffffff"
     bordercolor="#666666"
     borderopacity="1.0"
     inkscape:pageopacity="0.0"
     inkscape:pageshadow="2"
     inkscape:zoom="0.35"
     inkscape:cx="-1145.3604"
     inkscape:cy="307.89824"
     inkscape:document-units="mm"
     inkscape:current-layer="layer1"
     inkscape:document-rotation="0"
     showgrid="false"
     inkscape:pagecheckerboard="true"
     inkscape:window-width="1920"
     inkscape:window-height="1017"
     inkscape:window-x="-8"
     inkscape:window-y="-8"
     inkscape:window-maximized="1" />
  <metadata
     id="metadata111">
    <rdf:RDF>
      <cc:Work
         rdf:about="">
        <dc:format>image/svg+xml</dc:format>
        <dc:type
           rdf:resource="http://purl.org/dc/dcmitype/StillImage" />
        <dc:title></dc:title>
      </cc:Work>
    </rdf:RDF>
  </metadata>
  <g
     inkscape:label="Layer 1"
     inkscape:groupmode="layer"
     id="layer1"
     transform="translate(-408.69282,-66.518329)">
    <path
       d="m 444.15736,129.03284 h 43.73315 v -28.91049 h -43.73315 z m 46.13239,5.53544 h -48.53163 c -1.72932,0 -3.1362,-1.40688 -3.1362,-3.13619 V 97.723111 c 0,-1.729317 1.40688,-3.136194 3.1362,-3.136194 h 48.53163 c 1.72932,0 3.1362,1.406877 3.1362,3.136194 v 33.708979 c 0,1.72931 -1.40688,3.13619 -3.1362,3.13619"
       style="fill:#3aa38f;fill-opacity:1;fill-rule:nonzero;stroke:none;stroke-width:0.352778"
       id="path2163" />
    <path
       d="m 468.79148,159.11844 h 43.73315 v -41.77312 h -43.73315 z m 46.12957,5.53543 h -48.52564 c -1.73108,0 -3.13902,-1.40829 -3.13902,-3.13901 V 114.9489 c 0,-1.73073 1.40794,-3.13902 3.13902,-3.13902 h 48.52564 c 1.73073,0 3.13902,1.40829 3.13902,3.13902 v 46.56596 c 0,1.73072 -1.40829,3.13901 -3.13902,3.13901"
       style="fill:#b8237e;fill-opacity:1;fill-rule:nonzero;stroke:none;stroke-width:0.352778"
       id="path2165" />
    <path
       d="m 453.57194,183.12038 h 43.73315 v -37.64104 h -43.73315 z m 46.1324,5.53543 H 451.1727 c -1.72932,0 -3.1362,-1.40652 -3.1362,-3.13584 V 143.0801 c 0,-1.72932 1.40688,-3.13619 3.1362,-3.13619 h 48.53164 c 1.72931,0 3.13584,1.40687 3.13584,3.13619 v 42.43987 c 0,1.72932 -1.40653,3.13584 -3.13584,3.13584"
       style="fill:#f6921e;fill-opacity:1;fill-rule:nonzero;stroke:none;stroke-width:0.352778"
       id="path2167" />
    <g
       id="g2169"
       transform="matrix(0.35277777,0,0,-0.35277777,476.877,87.495201)">
      <path
         d="m 0,0 c -73.786,0 -133.817,-60.03 -133.817,-133.815 0,-73.787 60.031,-133.817 133.817,-133.817 73.786,0 133.817,60.03 133.817,133.817 C 133.817,-60.03 73.786,0 0,0 m 0,-327.094 c -106.574,0 -193.278,86.705 -193.278,193.279 0,106.573 86.704,193.277 193.278,193.277 106.574,0 193.278,-86.704 193.278,-193.277 0,-106.574 -86.704,-193.279 -193.278,-193.279"
         style="fill:#1c54a5;fill-opacity:1;fill-rule:nonzero;stroke:none"
         id="path2171" />
    </g>
    <g
       id="g2173"
       transform="matrix(0.35277777,0,0,-0.35277777,547.15626,206.07129)">
      <path
         d="m 0,0 v 0 c -16.456,-16.456 -43.383,-16.456 -59.839,0 l -39.189,39.19 c -15.887,15.886 -15.887,41.883 0,57.77 l 2.068,2.068 c 15.887,15.887 41.883,15.887 57.77,0 L 0,59.839 C 16.456,43.383 16.456,16.456 0,0"
         style="fill:#1c54a5;fill-opacity:1;fill-rule:nonzero;stroke:none"
         id="path2175" />
    </g>
  </g>
</svg>
