<?xml version="1.0" encoding="UTF-8" standalone="no"?>
<svg
   xmlns:dc="http://purl.org/dc/elements/1.1/"
   xmlns:cc="http://creativecommons.org/ns#"
   xmlns:rdf="http://www.w3.org/1999/02/22-rdf-syntax-ns#"
   xmlns:svg="http://www.w3.org/2000/svg"
   xmlns="http://www.w3.org/2000/svg"
   xmlns:sodipodi="http://sodipodi.sourceforge.net/DTD/sodipodi-0.dtd"
   xmlns:inkscape="http://www.inkscape.org/namespaces/inkscape"
   width="142.81743mm"
   height="143.90692mm"
   viewBox="0 0 142.81742 143.90691"
   version="1.1"
   id="svg114"
   sodipodi:docname="icon_tool_community__inactive.svg"
   inkscape:version="1.0.2-2 (e86c870879, 2021-01-15)">
  <defs
     id="defs108">
    <clipPath
       clipPathUnits="userSpaceOnUse"
       id="clipPath1101">
      <path
         d="M 0,1080 H 1920 V 0 H 0 Z"
         id="path1099" />
    </clipPath>
    <clipPath
       clipPathUnits="userSpaceOnUse"
       id="clipPath1109">
      <path
         d="M 56.9367,1110.13 H 1888.36 V 283.098 H 56.9367 Z"
         id="path1107" />
    </clipPath>
    <clipPath
       clipPathUnits="userSpaceOnUse"
       id="clipPath1113">
      <path
         d="M 56.9367,1110.13 H 1888.36 V 283.098 H 56.9367 Z"
         id="path1111" />
    </clipPath>
    <clipPath
       clipPathUnits="userSpaceOnUse"
       id="clipPath1117">
      <path
         d="M 1857.973,286.01 H 1302.304 62.396 v 507.98 h 1795.577 z"
         id="path1115" />
    </clipPath>
    <clipPath
       clipPathUnits="userSpaceOnUse"
       id="clipPath1121">
      <path
         d="M 56.9367,535.762 H 229.818 V 283.098 H 56.9367 Z"
         id="path1119" />
    </clipPath>
    <clipPath
       clipPathUnits="userSpaceOnUse"
       id="clipPath1125">
      <path
         d="M 541.493,828.151 H 1403.8 V 283.098 H 541.493 Z"
         id="path1123" />
    </clipPath>
    <clipPath
       clipPathUnits="userSpaceOnUse"
       id="clipPath1129">
      <path
         d="m 1101.3,1110.13 h 787.06 V 283.098 H 1101.3 Z"
         id="path1127" />
    </clipPath>
    <clipPath
       clipPathUnits="userSpaceOnUse"
       id="clipPath1133">
      <path
         d="M 56.9367,637.796 H 426.516 V 283.098 H 56.9367 Z"
         id="path1131" />
    </clipPath>
    <clipPath
       clipPathUnits="userSpaceOnUse"
       id="clipPath1137">
      <path
         d="M 61.3454,633.681 H 615.993 V 283.098 H 61.3454 Z"
         id="path1135" />
    </clipPath>
    <clipPath
       clipPathUnits="userSpaceOnUse"
       id="clipPath1141">
      <path
         d="M 396.129,727.044 H 1098.48 V 283.098 H 396.129 Z"
         id="path1139" />
    </clipPath>
    <clipPath
       clipPathUnits="userSpaceOnUse"
       id="clipPath1145">
      <path
         d="M 825.351,930.394 H 1849.43 V 283.098 H 825.351 Z"
         id="path1143" />
    </clipPath>
    <clipPath
       clipPathUnits="userSpaceOnUse"
       id="clipPath1149">
      <path
         d="m 1468.8,998.234 h 419.56 V 283.098 H 1468.8 Z"
         id="path1147" />
    </clipPath>
    <clipPath
       clipPathUnits="userSpaceOnUse"
       id="clipPath1153">
      <path
         d="M 239.279,678.129 H 864.251 V 283.098 H 239.279 Z"
         id="path1151" />
    </clipPath>
    <clipPath
       clipPathUnits="userSpaceOnUse"
       id="clipPath1101-3">
      <path
         d="M 0,1080 H 1920 V 0 H 0 Z"
         id="path1099-9" />
    </clipPath>
    <clipPath
       clipPathUnits="userSpaceOnUse"
       id="clipPath1109-2">
      <path
         d="M 56.9367,1110.13 H 1888.36 V 283.098 H 56.9367 Z"
         id="path1107-9" />
    </clipPath>
    <clipPath
       clipPathUnits="userSpaceOnUse"
       id="clipPath1113-3">
      <path
         d="M 56.9367,1110.13 H 1888.36 V 283.098 H 56.9367 Z"
         id="path1111-6" />
    </clipPath>
    <clipPath
       clipPathUnits="userSpaceOnUse"
       id="clipPath1117-5">
      <path
         d="M 1857.973,286.01 H 1302.304 62.396 v 507.98 h 1795.577 z"
         id="path1115-7" />
    </clipPath>
    <clipPath
       clipPathUnits="userSpaceOnUse"
       id="clipPath1121-4">
      <path
         d="M 56.9367,535.762 H 229.818 V 283.098 H 56.9367 Z"
         id="path1119-0" />
    </clipPath>
    <clipPath
       clipPathUnits="userSpaceOnUse"
       id="clipPath1125-2">
      <path
         d="M 541.493,828.151 H 1403.8 V 283.098 H 541.493 Z"
         id="path1123-7" />
    </clipPath>
    <clipPath
       clipPathUnits="userSpaceOnUse"
       id="clipPath1129-4">
      <path
         d="m 1101.3,1110.13 h 787.06 V 283.098 H 1101.3 Z"
         id="path1127-7" />
    </clipPath>
    <clipPath
       clipPathUnits="userSpaceOnUse"
       id="clipPath1133-9">
      <path
         d="M 56.9367,637.796 H 426.516 V 283.098 H 56.9367 Z"
         id="path1131-9" />
    </clipPath>
    <clipPath
       clipPathUnits="userSpaceOnUse"
       id="clipPath1137-5">
      <path
         d="M 61.3454,633.681 H 615.993 V 283.098 H 61.3454 Z"
         id="path1135-4" />
    </clipPath>
    <clipPath
       clipPathUnits="userSpaceOnUse"
       id="clipPath1141-8">
      <path
         d="M 396.129,727.044 H 1098.48 V 283.098 H 396.129 Z"
         id="path1139-4" />
    </clipPath>
    <clipPath
       clipPathUnits="userSpaceOnUse"
       id="clipPath1145-4">
      <path
         d="M 825.351,930.394 H 1849.43 V 283.098 H 825.351 Z"
         id="path1143-6" />
    </clipPath>
    <clipPath
       clipPathUnits="userSpaceOnUse"
       id="clipPath1149-3">
      <path
         d="m 1468.8,998.234 h 419.56 V 283.098 H 1468.8 Z"
         id="path1147-8" />
    </clipPath>
    <clipPath
       clipPathUnits="userSpaceOnUse"
       id="clipPath1153-8">
      <path
         d="M 239.279,678.129 H 864.251 V 283.098 H 239.279 Z"
         id="path1151-8" />
    </clipPath>
  </defs>
  <sodipodi:namedview
     id="base"
     pagecolor="#ffffff"
     bordercolor="#666666"
     borderopacity="1.0"
     inkscape:pageopacity="0.0"
     inkscape:pageshadow="2"
     inkscape:zoom="0.35"
     inkscape:cx="750.6803"
     inkscape:cy="-565.09497"
     inkscape:document-units="mm"
     inkscape:current-layer="layer1"
     inkscape:document-rotation="0"
     showgrid="false"
     inkscape:pagecheckerboard="true"
     inkscape:window-width="1920"
     inkscape:window-height="1017"
     inkscape:window-x="-8"
     inkscape:window-y="-8"
     inkscape:window-maximized="1" />
  <metadata
     id="metadata111">
    <rdf:RDF>
      <cc:Work
         rdf:about="">
        <dc:format>image/svg+xml</dc:format>
        <dc:type
           rdf:resource="http://purl.org/dc/dcmitype/StillImage" />
        <dc:title></dc:title>
      </cc:Work>
    </rdf:RDF>
  </metadata>
  <g
     inkscape:label="Layer 1"
     inkscape:groupmode="layer"
     id="layer1"
     transform="translate(92.967963,-297.49778)">
    <g
       id="g2177"
       transform="matrix(0.35277777,0,0,-0.35277777,-58.15183,371.85053)">
      <path
         d="M 0,0 C -4.964,4.437 -12.614,4.006 -17.057,-0.962 -25.79,-10.739 -30.6,-23.304 -30.6,-36.342 v -83.766 c 0,-6.66 5.419,-12.078 12.079,-12.078 6.66,0 12.079,5.418 12.079,12.078 v 83.766 c 0,7.093 2.629,13.943 7.404,19.287 2.148,2.407 3.232,5.507 3.051,8.728 C 3.831,-5.105 2.406,-2.148 0,0"
         style="fill:#231f20;fill-opacity:1;fill-rule:nonzero;stroke:none"
         id="path2179" />
    </g>
    <g
       id="g2181"
       transform="matrix(0.35277777,0,0,-0.35277777,-31.236509,370.54292)">
      <path
         d="m 0,0 c -9.95,8.705 -21.925,13.307 -34.692,13.307 l -9.689,-0.112 c -4.374,0 -8.209,0.651 -11.397,1.933 -12.441,5.012 -20.159,17.405 -19.208,30.839 1.079,15.246 13.902,27.744 29.2,28.45 8.498,0.405 16.553,-2.606 22.697,-8.472 6.14,-5.863 9.521,-13.761 9.521,-22.242 0,-5.091 -1.256,-10.121 -3.633,-14.546 -1.527,-2.843 -1.855,-6.109 -0.925,-9.199 0.93,-3.09 3.009,-5.632 5.852,-7.158 5.864,-3.148 13.198,-0.939 16.354,4.926 4.258,7.927 6.509,16.91 6.509,25.977 0,15.145 -6.035,29.25 -16.995,39.715 C -17.328,93.846 -31.703,99.209 -46.908,98.549 -74.235,97.286 -97.153,74.94 -99.084,47.673 -100.777,23.747 -87,1.663 -64.804,-7.279 c 6.067,-2.444 12.964,-3.684 20.562,-3.684 l 9.689,0.112 c 6.813,0 13.09,-2.47 18.665,-7.348 6.369,-5.546 10.021,-13.51 10.021,-21.849 v -83.766 c 0,-6.66 5.419,-12.079 12.079,-12.079 6.66,0 12.079,5.419 12.079,12.079 v 83.766 C 18.291,-24.724 11.621,-10.126 0,0"
         style="fill:#231f20;fill-opacity:1;fill-rule:nonzero;stroke:none"
         id="path2183" />
    </g>
    <g
       id="g2185"
       transform="matrix(0.35277777,0,0,-0.35277777,9.8163456,371.64655)">
      <path
         d="m 0,0 c -8.045,7.039 -17.733,10.759 -28.075,10.759 l -7.624,-0.088 c -3.307,0 -6.194,0.486 -8.576,1.444 -9.364,3.773 -15.175,13.103 -14.458,23.219 0.812,11.474 10.463,20.879 21.978,21.411 6.375,0.299 12.46,-1.961 17.085,-6.376 4.622,-4.413 7.167,-10.36 7.167,-16.743 0,-3.834 -0.945,-7.62 -2.732,-10.948 -1.343,-2.497 -1.632,-5.368 -0.814,-8.082 0.817,-2.715 2.643,-4.947 5.14,-6.288 5.151,-2.766 11.597,-0.826 14.366,4.326 3.442,6.407 5.261,13.665 5.261,20.992 0,12.238 -4.877,23.636 -13.733,32.091 -8.825,8.426 -20.443,12.774 -32.726,12.227 -22.082,-1.021 -40.601,-19.079 -42.162,-41.113 -1.048,-14.812 5.248,-28.743 16.313,-37.701 -3.952,1.422 -8.551,0.417 -11.52,-2.903 -7.063,-7.907 -10.952,-18.069 -10.952,-28.613 v -91.764 c 0,-5.851 4.76,-10.61 10.611,-10.61 5.85,0 10.61,4.759 10.61,10.61 v 91.764 c 0,5.323 1.974,10.463 5.558,14.475 3.523,3.944 3.541,9.806 0.293,13.777 2.135,-1.318 4.398,-2.474 6.787,-3.436 4.915,-1.979 10.487,-2.982 16.626,-2.982 l 7.624,0.088 c 5.099,0 9.805,-1.855 13.996,-5.521 4.782,-4.167 7.524,-10.145 7.524,-16.401 v -66.023 c 0,-5.85 4.76,-10.61 10.611,-10.61 5.851,0 10.611,4.76 10.611,10.61 v 66.023 C 14.789,-19.993 9.396,-8.187 0,0"
         style="fill:#231f20;fill-opacity:1;fill-rule:nonzero;stroke:none"
         id="path2187" />
    </g>
    <g
       id="g2189"
       transform="matrix(0.35277777,0,0,-0.35277777,-24.783781,318.47465)">
      <path
         d="m 0,0 c -73.786,0 -133.817,-60.03 -133.817,-133.815 0,-73.787 60.031,-133.817 133.817,-133.817 73.786,0 133.817,60.03 133.817,133.817 C 133.817,-60.03 73.786,0 0,0 m 0,-327.094 c -106.574,0 -193.278,86.705 -193.278,193.279 0,106.573 86.704,193.277 193.278,193.277 106.574,0 193.278,-86.704 193.278,-193.277 0,-106.574 -86.704,-193.279 -193.278,-193.279"
         style="fill:#231f20;fill-opacity:1;fill-rule:nonzero;stroke:none"
         id="path2191" />
    </g>
    <g
       id="g2193"
       transform="matrix(0.35277777,0,0,-0.35277777,45.495478,437.05071)">
      <path
         d="m 0,0 v 0 c -16.456,-16.456 -43.383,-16.456 -59.839,0 l -39.189,39.19 c -15.887,15.886 -15.887,41.883 0,57.77 l 2.068,2.068 c 15.887,15.887 41.883,15.887 57.77,0 L 0,59.838 C 16.456,43.383 16.456,16.456 0,0"
         style="fill:#231f20;fill-opacity:1;fill-rule:nonzero;stroke:none"
         id="path2195" />
    </g>
  </g>
</svg>
