<?xml version="1.0" encoding="UTF-8" standalone="no"?>
<svg
   xmlns:dc="http://purl.org/dc/elements/1.1/"
   xmlns:cc="http://creativecommons.org/ns#"
   xmlns:rdf="http://www.w3.org/1999/02/22-rdf-syntax-ns#"
   xmlns:svg="http://www.w3.org/2000/svg"
   xmlns="http://www.w3.org/2000/svg"
   xmlns:sodipodi="http://sodipodi.sourceforge.net/DTD/sodipodi-0.dtd"
   xmlns:inkscape="http://www.inkscape.org/namespaces/inkscape"
   width="143.26341mm"
   height="143.26376mm"
   viewBox="0 0 143.26341 143.26376"
   version="1.1"
   id="svg114"
   sodipodi:docname="icon_economic.svg"
   inkscape:version="1.0.2-2 (e86c870879, 2021-01-15)">
  <defs
     id="defs108" />
  <sodipodi:namedview
     id="base"
     pagecolor="#ffffff"
     bordercolor="#666666"
     borderopacity="1.0"
     inkscape:pageopacity="0.0"
     inkscape:pageshadow="2"
     inkscape:zoom="0.35"
     inkscape:cx="785.0985"
     inkscape:cy="33.673264"
     inkscape:document-units="mm"
     inkscape:current-layer="layer1"
     inkscape:document-rotation="0"
     showgrid="false"
     inkscape:pagecheckerboard="true"
     inkscape:window-width="1920"
     inkscape:window-height="1017"
     inkscape:window-x="-8"
     inkscape:window-y="-8"
     inkscape:window-maximized="1" />
  <metadata
     id="metadata111">
    <rdf:RDF>
      <cc:Work
         rdf:about="">
        <dc:format>image/svg+xml</dc:format>
        <dc:type
           rdf:resource="http://purl.org/dc/dcmitype/StillImage" />
        <dc:title></dc:title>
      </cc:Work>
    </rdf:RDF>
  </metadata>
  <g
     inkscape:label="Layer 1"
     inkscape:groupmode="layer"
     id="layer1"
     transform="translate(102.07443,-139.07368)">
    <g
       id="g552"
       transform="matrix(0.35277777,0,0,-0.35277777,41.188976,210.70556)">
      <path
         d="m 0,0 c 0,-112.142 -90.909,-203.051 -203.051,-203.051 -112.141,0 -203.05,90.909 -203.05,203.051 0,112.142 90.909,203.051 203.05,203.051 C -90.909,203.051 0,112.142 0,0"
         style="fill:#163d7d;fill-opacity:1;fill-rule:nonzero;stroke:none"
         id="path554" />
    </g>
    <g
       id="g556"
       transform="matrix(0.35277777,0,0,-0.35277777,20.7043,210.70556)">
      <path
         d="m 0,0 c 0,-80.072 -64.911,-144.984 -144.984,-144.984 -80.072,0 -144.983,64.912 -144.983,144.984 0,80.072 64.911,144.984 144.983,144.984 C -64.911,144.984 0,80.072 0,0"
         style="fill:#1c54a5;fill-opacity:1;fill-rule:nonzero;stroke:none"
         id="path558" />
    </g>
    <g
       id="g560"
       transform="matrix(0.35277777,0,0,-0.35277777,-39.691254,198.64712)">
      <path
         d="m 0,0 c -0.033,5.34 3.029,9.498 9.24,12.458 l 1.219,0.478 V -13.536 C 3.542,-10.872 0.041,-6.371 0,0 m 43.622,-52.534 c 8.567,-2.699 12.898,-7.678 12.848,-15.024 -0.065,-6.824 -3.185,-12.11 -9.363,-15.868 -1.087,-0.691 -2.27,-1.272 -3.485,-1.816 z m -24.506,-90.749 h 15.857 c 4.783,0 8.649,3.863 8.649,8.639 v 14.74 c 12.697,1.891 23.763,5.871 33.143,12.018 14.79,9.779 22.384,23.225 22.725,40.422 0.213,10.72 -2.755,19.837 -8.945,27.314 -10.02,11.957 -25.668,19.445 -46.923,22.417 v 29.856 c 3.744,-1.756 7.348,-4.108 10.821,-7.117 2.134,-1.772 4.597,-2.674 7.405,-2.685 2.282,-0.012 5.41,1.581 5.41,1.581 l 0.05,0.022 17.782,11.149 c 2.426,1.533 3.661,3.495 3.707,5.872 0.028,1.913 -0.748,3.59 -2.328,5.027 C 75.39,38.586 61.089,46.406 43.622,49.449 v 16.804 c 0,4.782 -3.866,8.667 -8.649,8.667 H 19.116 c -4.786,0 -8.657,-3.885 -8.657,-8.667 V 49.886 C 2.253,48.747 -5.177,46.666 -11.773,43.647 -33.098,33.935 -43.565,19.377 -43.212,0.096 c 0.168,-9.496 3.037,-17.897 8.546,-25.197 9.277,-12.445 24.326,-20.231 45.125,-23.441 v -37.274 c -8.986,3.174 -17.482,9.084 -25.487,17.757 -1.749,2.284 -4.093,3.426 -7.011,3.426 -1.601,0 -4.737,-1.38 -4.737,-1.38 l -0.058,-0.024 -16.177,-9.485 c -2.754,-1.605 -4.101,-3.733 -4.056,-6.348 0.029,-1.709 0.661,-3.234 1.888,-4.61 4.208,-5.874 9.865,-11.506 16.937,-16.879 11.441,-8.807 24.346,-14.289 38.701,-16.569 v -14.716 c 0,-4.776 3.871,-8.639 8.657,-8.639"
         style="fill:#ffffff;fill-opacity:1;fill-rule:nonzero;stroke:none"
         id="path562" />
    </g>
  </g>
</svg>
